<svg version="1.1" viewBox="0 0 92.412 101.66" xml:space="preserve" xmlns="http://www.w3.org/2000/svg" xmlns:cc="http://creativecommons.org/ns#" xmlns:dc="http://purl.org/dc/elements/1.1/" xmlns:rdf="http://www.w3.org/1999/02/22-rdf-syntax-ns#"><metadata><rdf:RDF><cc:Work rdf:about=""><dc:format>image/svg+xml</dc:format><dc:type rdf:resource="http://purl.org/dc/dcmitype/StillImage"/></cc:Work></rdf:RDF></metadata><g transform="matrix(1.25 0 0 -1.25 -3337.6 976.1)"><text transform="scale(-1)" x="-3829.1804" y="-149.98003" fill="#eeeeee" font-family="'Avenir LT Std'" font-size="28px" letter-spacing="0px" opacity=".666" stroke-width="1px" word-spacing="0px" style="line-height:125%" xml:space="preserve"><tspan x="-3829.1804" y="-149.98003"/></text><text transform="scale(-1)" x="-3858.6885" y="-174.02371" fill="#eeeeee" font-family="'Roboto Condensed'" font-size="28px" font-stretch="condensed" font-style="italic" font-weight="300" letter-spacing="0px" opacity=".666" stroke-width="1px" word-spacing="0px" style="line-height:125%" xml:space="preserve"><tspan x="-3858.6885" y="-174.02371"/></text><g transform="matrix(.77138 0 0 .77138 2427.7 644.95)"><path d="m363.31 111.69v-0.0153h28.974c0.67406 2.2864 1.0389 4.6892 1.0389 7.1694 0 15.13-13.365 27.41-29.931 27.608v0.0176c-16.605-0.15736-30.012-12.455-30.012-27.61 0-2.4802 0.36481-4.8829 1.0377-7.1694h28.894z" fill="#e8e8e8"/><g fill="#e8e8e8"><path d="m379.98 176.2c-3.932 0-7.1187-3.0979-7.1187-6.9204 0-1.7615 0.68372-3.3657 1.7987-4.587l-5.8829-10.734c-0.84559 0.30768-1.7564 0.48383-2.7119 0.48383h-2.6781v0.0153h-2.7578c-0.95551 0-1.8663-0.17615-2.7119-0.48383l-5.8829 10.734c1.115 1.2213 1.7975 2.8255 1.7975 4.587 0 3.8225-3.1867 6.9204-7.1174 6.9204-3.932 0-7.1187-3.0979-7.1187-6.9204 0-3.8213 3.1867-6.9192 7.1187-6.9192 0.44454 0 0.8782 0.0446 1.301 0.11979l6.2078-11.327c-0.85163-1.2119-1.353-2.6752-1.353-4.2546 0-4.1654 3.4742-7.5428 7.7589-7.5428h2.6781v-0.0153h2.7578c4.2847 0 7.7589 3.3774 7.7589 7.5428 0 1.5795-0.50131 3.0427-1.3529 4.2546l6.2078 11.327c0.42279-0.0752 0.85646-0.12096 1.301-0.12096 3.932 0 7.1187 3.0991 7.1187 6.9204 0 3.8225-3.1867 6.9204-7.1187 6.9204"/><path d="m354.41 98.012c0 2.8736-2.2396 5.2023-5.0023 5.2023s-5.0023-2.3287-5.0023-5.2023v-14.996h-10.516c-3.4718 0-6.2852-2.735-6.2852-6.1089 0-3.3751 2.8134-6.1101 6.2852-6.1101h14.236c3.4706 0 6.284 2.735 6.284 6.1101 0 0.15619-0.0121 0.31003-0.0242 0.46504 0.0145 0.16323 0.0242 0.32999 0.0242 0.49792z"/><path d="m372.29 97.997c0 2.8736 2.2396 5.2023 5.0023 5.2023s5.0011-2.3287 5.0011-5.2023v-14.996h10.517c3.4718 0 6.2852-2.735 6.2852-6.1101 0-3.3739-2.8134-6.1089-6.2852-6.1089h-14.236c-3.4705 0-6.2839 2.735-6.2839 6.1089 0 0.15736 0.0121 0.3112 0.0242 0.46621-0.0145 0.16323-0.0242 0.32999-0.0242 0.49792z"/><path d="m363.39 107.08v0.0153h-30.654c5.8201-10.003 17.309-16.842 30.573-16.979v-0.01879c13.299 0.10921 24.823 6.958 30.654 16.982h-30.573z"/></g><path d="m361.34 125.53c0-4.5447-3.7894-8.2286-8.4644-8.2286-4.6749 0-8.4656 3.6839-8.4656 8.2286s3.7907 8.2298 8.4656 8.2298 8.4644-3.6851 8.4644-8.2298" fill="#075aff" fill-opacity=".25959"/><path d="m357.3 125.53c0-2.3769-1.9823-4.304-4.4273-4.304s-4.4273 1.9271-4.4273 4.304 1.9823 4.3051 4.4273 4.3051 4.4273-1.9283 4.4273-4.3051" fill="#1a1a1a"/><path d="m352.87 128.29c0-1.428-1.1911-2.5859-2.66-2.5859s-2.66 1.1579-2.66 2.5859 1.1911 2.5859 2.66 2.5859 2.66-1.1579 2.66-2.5859" fill="#e8e8e8"/><path d="m365.36 125.52c0-4.5447 3.7907-8.2286 8.4656-8.2286s8.4644 3.6839 8.4644 8.2286-3.7894 8.2298-8.4644 8.2298c-4.6749 0-8.4656-3.6851-8.4656-8.2298" fill="#075aff" fill-opacity=".25959"/><path d="m369.4 125.52c0-2.3769 1.9823-4.304 4.4273-4.304s4.4273 1.9271 4.4273 4.304-1.9823 4.3051-4.4273 4.3051-4.4273-1.9283-4.4273-4.3051" fill="#1a1a1a"/><g fill="#e8e8e8"><path d="m373.83 128.28c0-1.428 1.1911-2.5859 2.66-2.5859s2.66 1.1579 2.66 2.5859-1.1911 2.5859-2.66 2.5859-2.66-1.1579-2.66-2.5859"/><path d="m332.04 123.21c1.6815-1.8191 3.7544-2.7585 6.3407-2.8736l-0.31045-6.5869c-4.4394 0.19729-8.1696 1.9024-11.087 5.0685-6.4591 7.0038-6.7671 19.324-6.6862 23.3-3.5297 1.0698-6.0774 3.9998-6.0774 7.4489 0 0.0669 0.0109 0.12917 0.0133 0.19494h4.7945c-6e-3 -0.0658-0.0193-0.12801-0.0193-0.19494 0-1.7815 1.8941-3.2306 4.2219-3.2306 2.329 0 4.2231 1.4491 4.2231 3.2306 0 0.0669-0.0133 0.12917-0.0193 0.19494h4.7945c1e-3 -0.0658 0.0121-0.12801 0.0121-0.19494 0-3.1378-2.1104-5.8471-5.1496-7.1154-0.17033-4.136 0.40105-14.318 4.9491-19.242"/><path d="m392.24 123.21c-1.6803-1.8191-3.7544-2.7585-6.3407-2.8736l0.31045-6.5869c4.4394 0.19729 8.1696 1.9024 11.088 5.0685 6.4579 7.0038 6.7659 19.324 6.685 23.3 3.5309 1.0698 6.0774 3.9998 6.0774 7.4489 0 0.0669-0.0109 0.12917-0.0121 0.19494h-4.7945c5e-3 -0.0658 0.0193-0.12801 0.0193-0.19494 0-1.7815-1.8941-3.2306-4.2231-3.2306s-4.2219 1.4491-4.2219 3.2306c0 0.0669 0.0121 0.12917 0.0181 0.19494h-4.7945c-1e-3 -0.0658-0.0121-0.12801-0.0121-0.19494 0-3.1378 2.1104-5.8471 5.1496-7.1154 0.17032-4.136-0.40106-14.318-4.9491-19.242"/></g></g></g></svg>