<?xml version="1.0" encoding="UTF-8" standalone="no"?><!DOCTYPE svg PUBLIC "-//W3C//DTD SVG 1.1//EN" "http://www.w3.org/Graphics/SVG/1.1/DTD/svg11.dtd"><svg width="100%" height="100%" viewBox="0 0 15 15" version="1.1" xmlns="http://www.w3.org/2000/svg" xmlns:xlink="http://www.w3.org/1999/xlink" xml:space="preserve" xmlns:serif="http://www.serif.com/" style="fill-rule:evenodd;clip-rule:evenodd;stroke-linejoin:round;stroke-miterlimit:2;"><g id="g5306"><g id="g386"><path id="path388" d="M10.055,4.043l-0.597,-0.406c-0.684,-0.465 -1.995,-0.328 -2.318,0.147c-0.203,0.298 -3.811,5.604 -3.811,5.604c-0.258,0.38 -0.217,0.857 0.091,1.067l2.514,1.71c0.309,0.209 0.768,0.072 1.026,-0.308c0,0 3.677,-5.407 3.811,-5.603c0.323,-0.476 -0.104,-1.795 -0.716,-2.211" style="fill:#e8e8e8;fill-rule:nonzero;"/></g><g id="g390"><path id="path392" d="M13.202,9.622l-2.784,-2.557c-0.342,-0.314 -0.746,-0.382 -0.903,-0.151l-1.504,2.212c-0.157,0.231 -0.007,0.672 0.335,0.986l2.784,2.557c0.342,0.314 0.746,0.382 0.902,0.152l1.505,-2.213c0.157,-0.231 0.007,-0.672 -0.335,-0.986" style="fill:#e8e8e8;fill-rule:nonzero;"/></g><g id="g394"><path id="path396" d="M11.166,8.279c-0.189,-0.129 -0.406,-0.14 -0.484,-0.025l-0.226,0.332c-0.078,0.115 0.012,0.312 0.201,0.441c0.189,0.128 0.405,0.14 0.483,0.025l0.226,-0.333c0.079,-0.114 -0.011,-0.312 -0.2,-0.44" style="fill:#262626;fill-rule:nonzero;"/></g><g id="g398"><path id="path400" d="M12.065,9.051c-0.189,-0.128 -0.406,-0.139 -0.484,-0.025l-0.226,0.333c-0.078,0.115 0.012,0.312 0.201,0.44c0.189,0.129 0.406,0.14 0.484,0.025l0.226,-0.332c0.078,-0.115 -0.012,-0.312 -0.201,-0.441" style="fill:#262626;fill-rule:nonzero;"/></g><g id="g402"><path id="path404" d="M12.939,9.86c-0.189,-0.128 -0.405,-0.139 -0.483,-0.025l-0.226,0.333c-0.078,0.115 0.012,0.312 0.201,0.44c0.188,0.129 0.405,0.14 0.483,0.025l0.226,-0.332c0.078,-0.115 -0.012,-0.312 -0.201,-0.441" style="fill:#262626;fill-rule:nonzero;"/></g><g id="g406"><path id="path408" d="M10.56,9.169c-0.189,-0.128 -0.405,-0.139 -0.483,-0.025l-0.227,0.333c-0.078,0.115 0.012,0.312 0.202,0.44c0.188,0.129 0.405,0.14 0.483,0.025l0.226,-0.332c0.078,-0.115 -0.012,-0.312 -0.201,-0.441" style="fill:#262626;fill-rule:nonzero;"/></g><g id="g410"><path id="path412" d="M11.459,9.942c-0.189,-0.129 -0.405,-0.14 -0.483,-0.025l-0.226,0.332c-0.078,0.115 0.012,0.312 0.201,0.441c0.189,0.128 0.405,0.139 0.483,0.025l0.226,-0.333c0.078,-0.115 -0.012,-0.312 -0.201,-0.44" style="fill:#262626;fill-rule:nonzero;"/></g><g id="g414"><path id="path416" d="M12.334,10.751c-0.189,-0.129 -0.406,-0.14 -0.484,-0.025l-0.226,0.332c-0.078,0.115 0.012,0.312 0.201,0.441c0.189,0.128 0.406,0.14 0.484,0.025l0.226,-0.333c0.078,-0.115 -0.012,-0.312 -0.201,-0.44" style="fill:#262626;fill-rule:nonzero;"/></g><g id="g418"><path id="path420" d="M9.962,10.049c-0.189,-0.128 -0.406,-0.14 -0.484,-0.025l-0.226,0.333c-0.078,0.114 0.012,0.312 0.201,0.44c0.189,0.129 0.406,0.14 0.484,0.025l0.226,-0.332c0.078,-0.115 -0.012,-0.312 -0.201,-0.441" style="fill:#262626;fill-rule:nonzero;"/></g><g id="g422"><path id="path424" d="M10.861,10.821c-0.189,-0.128 -0.405,-0.139 -0.483,-0.025l-0.227,0.333c-0.077,0.115 0.012,0.312 0.201,0.44c0.189,0.129 0.406,0.14 0.484,0.025l0.226,-0.332c0.078,-0.115 -0.012,-0.312 -0.201,-0.441" style="fill:#262626;fill-rule:nonzero;"/></g><g id="g426"><path id="path428" d="M11.736,11.63c-0.189,-0.128 -0.406,-0.139 -0.484,-0.025l-0.226,0.333c-0.078,0.115 0.012,0.312 0.201,0.441c0.189,0.128 0.405,0.139 0.483,0.025l0.226,-0.333c0.079,-0.115 -0.011,-0.312 -0.2,-0.441" style="fill:#262626;fill-rule:nonzero;"/></g><g id="g430"><path id="path432" d="M6.552,4.436l-3.402,-1.649c-0.417,-0.202 -0.883,-0.179 -1.039,0.051l-1.505,2.213c-0.157,0.23 0.055,0.581 0.472,0.783l3.402,1.649c0.417,0.203 0.883,0.18 1.04,-0.051l1.504,-2.212c0.157,-0.231 -0.054,-0.581 -0.472,-0.784" style="fill:#e8e8e8;fill-rule:nonzero;"/></g><g id="g434"><path id="path436" d="M5.195,4.219c-0.189,-0.129 -0.405,-0.14 -0.483,-0.025l-0.226,0.333c-0.078,0.114 0.012,0.312 0.201,0.44c0.188,0.129 0.405,0.14 0.483,0.025l0.226,-0.333c0.078,-0.114 -0.012,-0.311 -0.201,-0.44" style="fill:#262626;fill-rule:nonzero;"/></g><g id="g438"><path id="path440" d="M4.146,3.667c-0.189,-0.129 -0.405,-0.14 -0.483,-0.025l-0.226,0.332c-0.078,0.115 0.012,0.312 0.201,0.441c0.189,0.128 0.405,0.139 0.483,0.025l0.226,-0.333c0.078,-0.115 -0.012,-0.312 -0.201,-0.44" style="fill:#262626;fill-rule:nonzero;"/></g><g id="g442"><path id="path444" d="M3.072,3.151c-0.189,-0.129 -0.405,-0.14 -0.483,-0.025l-0.226,0.332c-0.078,0.115 0.012,0.312 0.201,0.441c0.189,0.128 0.405,0.14 0.483,0.025l0.226,-0.333c0.078,-0.114 -0.012,-0.312 -0.201,-0.44" style="fill:#262626;fill-rule:nonzero;"/></g><g id="g446"><path id="path448" d="M4.59,5.109c-0.189,-0.128 -0.406,-0.139 -0.484,-0.025l-0.226,0.333c-0.078,0.115 0.012,0.312 0.201,0.44c0.189,0.129 0.406,0.14 0.484,0.025l0.226,-0.332c0.078,-0.115 -0.012,-0.312 -0.201,-0.441" style="fill:#262626;fill-rule:nonzero;"/></g><g id="g450"><path id="path452" d="M3.541,4.557c-0.189,-0.129 -0.406,-0.14 -0.484,-0.025l-0.226,0.332c-0.078,0.115 0.012,0.312 0.201,0.441c0.189,0.128 0.406,0.14 0.484,0.025l0.226,-0.333c0.078,-0.114 -0.012,-0.312 -0.201,-0.44" style="fill:#262626;fill-rule:nonzero;"/></g><g id="g454"><path id="path456" d="M2.467,4.041c-0.189,-0.128 -0.406,-0.14 -0.483,-0.025l-0.227,0.333c-0.078,0.115 0.012,0.312 0.201,0.44c0.189,0.129 0.406,0.14 0.484,0.025l0.226,-0.332c0.078,-0.115 -0.012,-0.312 -0.201,-0.441" style="fill:#262626;fill-rule:nonzero;"/></g><g id="g458"><path id="path460" d="M3.991,5.989c-0.189,-0.128 -0.405,-0.14 -0.483,-0.025l-0.226,0.333c-0.078,0.115 0.012,0.312 0.201,0.44c0.189,0.129 0.405,0.14 0.483,0.025l0.226,-0.332c0.079,-0.115 -0.011,-0.312 -0.201,-0.441" style="fill:#262626;fill-rule:nonzero;"/></g><g id="g462"><path id="path464" d="M2.943,5.437c-0.189,-0.129 -0.406,-0.14 -0.484,-0.025l-0.226,0.332c-0.078,0.115 0.012,0.312 0.201,0.441c0.189,0.128 0.405,0.14 0.483,0.025l0.227,-0.333c0.078,-0.114 -0.012,-0.312 -0.201,-0.44" style="fill:#262626;fill-rule:nonzero;"/></g><g id="g466"><path id="path468" d="M1.869,4.921c-0.189,-0.129 -0.406,-0.14 -0.484,-0.025l-0.226,0.333c-0.078,0.114 0.012,0.312 0.201,0.44c0.189,0.129 0.406,0.14 0.483,0.025l0.227,-0.333c0.078,-0.114 -0.012,-0.312 -0.201,-0.44" style="fill:#262626;fill-rule:nonzero;"/></g><g id="g470"><path id="path472" d="M8.611,1.759c-0.314,0.462 0.201,1.358 1.149,2.003c0.949,0.645 1.972,0.794 2.286,0.333l-3.435,-2.336Z" style="fill:#d8dad9;fill-rule:nonzero;"/></g><g id="g474"><path id="path476" d="M10.886,2.002l-1.138,1.152c0,0 0.035,0.181 0.217,0.305c0.183,0.124 0.334,0.047 0.334,0.047l0.714,-1.414l-0.127,-0.09Z" style="fill:#fff;fill-opacity:0.9;fill-rule:nonzero;"/></g><g id="g478"><path id="path480" d="M11.152,2.045c-0.125,0.023 -0.245,-0.059 -0.269,-0.184c-0.024,-0.125 0.058,-0.246 0.183,-0.27c0.125,-0.023 0.246,0.059 0.27,0.184c0.024,0.125 -0.058,0.246 -0.184,0.27m0.304,-0.293c-0.037,-0.191 -0.221,-0.317 -0.413,-0.28c-0.191,0.036 -0.317,0.221 -0.28,0.412c0.036,0.191 0.221,0.317 0.412,0.28c0.192,-0.036 0.317,-0.221 0.281,-0.412" style="fill:#fff;fill-opacity:0.9;fill-rule:nonzero;"/></g><g id="g482"><path id="path484" d="M10.146,3.195c-0.949,-0.645 -1.535,-1.436 -1.535,-1.436c-0.314,0.462 0.201,1.358 1.149,2.003c0.949,0.645 1.972,0.794 2.286,0.333c-0,0 -0.951,-0.255 -1.9,-0.9" style="fill:#e8e8e8;fill-rule:nonzero;"/></g><g id="g486"></g></g></svg>