<svg style="background:0 0" viewBox="0 0 1440 260" xmlns="http://www.w3.org/2000/svg"> <style> .B{fill:#999;opacity:0.5} .C{fill:#fff;opacity:0.7} </style> <defs><linearGradient id="A" x2="0" y2="260" gradientUnits="userSpaceOnUse"><stop stop-color="rgba(255, 255, 255, 0)" offset="0"/></linearGradient></defs> <path d="M0 0h1440v260H0z" fill="url(#A)"/> <circle class="C" cx="198" cy="38" r="0.98"/> <circle class="C" cx="876" cy="184" r="1.04"/> <circle class="C" cx="445" cy="149" r="0.91"/> <circle class="C" cx="1234" cy="95" r="0.98"/> <circle class="C" cx="67" cy="215" r="1.11"/> <circle class="B" cx="723" cy="195" r="0.91"/> <circle class="B" cx="312" cy="73" r="0.98"/> <circle class="B" cx="1089" cy="138" r="1.04"/> <circle class="B" cx="534" cy="105" r="0.98"/> <circle class="C" cx="1012" cy="119" r="0.65"/> <circle class="C" cx="356" cy="62" r="0.59"/> <circle class="C" cx="1378" cy="205" r="0.72"/> <circle class="C" cx="89" cy="213" r="0.65"/> <circle class="C" cx="667" cy="82" r="0.59"/> <circle class="C" cx="1145" cy="227" r="0.65"/> <circle class="C" cx="489" cy="152" r="0.59"/> <circle class="C" cx="234" cy="51" r="0.72"/> <circle class="C" cx="923" cy="218" r="0.65"/> <circle class="B" cx="1267" cy="28" r="0.65"/> <circle class="B" cx="178" cy="128" r="0.59"/> <circle class="B" cx="801" cy="238" r="0.65"/> <circle class="B" cx="623" cy="108" r="0.59"/> <circle class="B" cx="389" cy="141" r="0.65"/> <circle class="B" cx="1401" cy="191" r="0.59"/> <circle class="B" cx="956" cy="83" r="0.65"/> <circle class="C" cx="745" cy="95" r="0.39"/> <circle class="C" cx="134" cy="172" r="0.46"/> <circle class="C" cx="1156" cy="61" r="0.39"/> <circle class="C" cx="456" cy="241" r="0.46"/> <circle class="C" cx="1312" cy="19" r="0.39"/> <circle class="C" cx="267" cy="118" r="0.46"/> <circle class="C" cx="867" cy="188" r="0.39"/> <circle class="C" cx="578" cy="164" r="0.46"/> <circle class="B" cx="45" cy="131" r="0.39"/> <circle class="B" cx="1034" cy="182" r="0.46"/> <circle class="B" cx="689" cy="52" r="0.39"/> <circle class="B" cx="1189" cy="173" r="0.39"/> <circle class="B" cx="334" cy="165" r="0.46"/> <circle class="B" cx="912" cy="219" r="0.39"/> <circle class="B" cx="223" cy="44" r="0.46"/> <circle class="C" cx="412" cy="198" r="0.65"/> <circle class="C" cx="789" cy="223" r="0.59"/> <circle class="C" cx="1289" cy="245" r="0.72"/> <circle class="C" cx="156" cy="234" r="0.65"/> <circle class="C" cx="945" cy="252" r="0.59"/> <circle class="C" cx="1423" cy="228" r="0.65"/> <circle class="B" cx="567" cy="211" r="0.59"/> <circle class="B" cx="1134" cy="248" r="0.65"/> <circle class="B" cx="298" cy="221" r="0.59"/> <circle class="B" cx="834" cy="189" r="0.65"/> <circle class="B" cx="1356" cy="237" r="0.59"/> <circle class="C" cx="645" cy="243" r="0.42"/> <circle class="C" cx="23" cy="195" r="0.46"/> <circle class="C" cx="1067" cy="207" r="0.39"/> <circle class="C" cx="489" cy="233" r="0.46"/> <circle class="C" cx="823" cy="48" r="0.39"/> <circle class="B" cx="978" cy="35" r="0.42"/> <circle class="C" cx="1156" cy="122" r="0.39"/> <circle class="B" cx="512" cy="178" r="0.42"/> <circle class="C" cx="1289" cy="156" r="0.39"/> <circle class="B" cx="401" cy="89" r="0.42"/> <circle class="C" cx="1345" cy="67" r="0.39"/> <circle class="B" cx="156" cy="92" r="0.42"/> <circle class="C" cx="734" cy="145" r="0.39"/> <circle class="B" cx="1423" cy="118" r="0.42"/> <circle class="C" cx="289" cy="182" r="0.39"/> <circle class="B" cx="1201" cy="205" r="0.42"/> <circle class="C" cx="45" cy="68" r="0.39"/> <circle class="B" cx="867" cy="132" r="0.42"/> <circle class="C" cx="623" cy="56" r="0.39"/> </svg>
