<?xml version="1.0" encoding="UTF-8" standalone="no"?><!DOCTYPE svg PUBLIC "-//W3C//DTD SVG 1.1//EN" "http://www.w3.org/Graphics/SVG/1.1/DTD/svg11.dtd"><svg width="100%" height="100%" viewBox="0 0 12 12" version="1.1" xmlns="http://www.w3.org/2000/svg" xmlns:xlink="http://www.w3.org/1999/xlink" xml:space="preserve" xmlns:serif="http://www.serif.com/" style="fill-rule:evenodd;clip-rule:evenodd;stroke-linejoin:round;stroke-miterlimit:2;"><g id="g5360"><g id="g354"><path id="path356" d="M7.709,2.996c-1.668,-0.944 -3.785,-0.357 -4.729,1.311c-0.944,1.668 -0.357,3.785 1.311,4.729c1.668,0.944 3.785,0.356 4.729,-1.311c0.944,-1.668 0.357,-3.786 -1.311,-4.729" style="fill:#e8e8e8;fill-rule:nonzero;"/></g><g id="g358"><path id="path360" d="M9.432,5.502c-0.699,-0.392 -1.577,-0.697 -2.336,-1.611c-0.504,-0.607 -1.192,-1.035 -1.693,-1.293c-0.248,0.043 -0.49,0.113 -0.723,0.209c0.577,0.373 1.296,0.919 1.611,1.505c0.341,0.636 2.163,1.502 3.171,1.943c0.018,-0.252 0.007,-0.505 -0.03,-0.753" style="fill:#d8d8d8;fill-rule:nonzero;"/></g><g id="g362"><path id="path364" d="M6.79,9.116c-0.76,-0.486 -1.822,-0.673 -2.76,-1.702c-0.444,-0.488 -1.012,-0.846 -1.486,-1.087c0.031,0.34 0.112,0.674 0.239,0.99c0.186,0.175 0.347,0.361 0.462,0.554c0.32,0.535 1.75,1.192 2.795,1.615c0.347,-0.004 0.69,-0.061 1.018,-0.166c-0.068,-0.064 -0.155,-0.132 -0.268,-0.204" style="fill:#d8d8d8;fill-rule:nonzero;"/></g><g id="g366"><path id="path368" d="M6.434,5.911c-1.341,-0.617 -2.259,-1.427 -3.086,-2.133c-0.137,0.162 -0.26,0.339 -0.368,0.529c-0.014,0.025 -0.028,0.05 -0.041,0.075c1.258,1.112 2.835,2.405 3.6,2.626c0.669,0.193 1.473,0.661 2.192,1.148c0.106,-0.134 0.202,-0.278 0.289,-0.431c0.016,-0.029 0.032,-0.058 0.047,-0.087c-0.667,-0.555 -1.618,-1.26 -2.633,-1.727" style="fill:#d8d8d8;fill-rule:nonzero;"/></g><g id="g370"><path id="path372" d="M9.467,6.176c-0.016,0.342 -0.082,0.685 -0.203,1.019c0.411,0.424 0.603,0.772 0.491,0.969c-0.112,0.198 -0.512,0.213 -1.091,0.076c-0.211,-0.049 -0.445,-0.119 -0.698,-0.207c-0.712,-0.247 -1.57,-0.639 -2.46,-1.143c-0.891,-0.504 -1.67,-1.037 -2.248,-1.52c-0.206,-0.171 -0.386,-0.336 -0.537,-0.492c-0.415,-0.426 -0.608,-0.776 -0.496,-0.974c0.111,-0.198 0.508,-0.213 1.084,-0.079c0.223,-0.275 0.483,-0.509 0.769,-0.698c-1.91,-0.734 -3.395,-0.897 -3.728,-0.308c-0.334,0.59 0.571,1.778 2.183,3.037c0.733,0.573 1.613,1.16 2.589,1.712c0.975,0.552 1.932,1.004 2.8,1.337c1.91,0.733 3.395,0.897 3.728,0.308c0.334,-0.59 -0.571,-1.778 -2.183,-3.037" style="fill:#d8d8d8;fill-rule:nonzero;"/></g><g id="g374"><path id="path376" d="M9.471,6.465c-0.014,0.087 -0.03,0.174 -0.05,0.26c0.753,0.713 1.126,1.339 0.928,1.689c-0.255,0.451 -1.412,0.248 -2.872,-0.312c-0.665,-0.256 -1.397,-0.601 -2.143,-1.023c-0.746,-0.423 -1.419,-0.872 -1.98,-1.31c-1.233,-0.963 -1.905,-1.795 -1.65,-2.246c0.198,-0.35 0.927,-0.352 1.926,-0.074c0.064,-0.062 0.13,-0.12 0.197,-0.176c-1.376,-0.459 -2.719,-0.693 -2.973,-0.243c-0.288,0.508 0.75,1.797 2.14,2.882c0.631,0.493 1.389,0.999 2.23,1.475c0.841,0.476 1.665,0.865 2.414,1.152c1.645,0.632 3.285,0.858 3.572,0.35c0.255,-0.45 -0.637,-1.48 -1.739,-2.424" style="fill:#e8e8e8;fill-rule:nonzero;"/></g><g id="g378"><path id="path380" d="M4.103,3.11c-0.062,0.04 -0.122,0.082 -0.181,0.126c0.48,0.561 2.21,2.403 5.368,3.884c0.024,-0.073 0.046,-0.145 0.066,-0.219c-0.639,-0.279 -3.488,-1.609 -5.253,-3.791" style="fill:#d8d8d8;fill-rule:nonzero;"/></g><g id="g382"><path id="path384" d="M9.133,4.525c-0.753,-0.467 -1.68,-1.118 -2.529,-1.927c-0.101,-0.017 -0.202,-0.031 -0.303,-0.04c0.677,0.657 1.656,1.481 2.965,2.287c-0.039,-0.109 -0.083,-0.216 -0.133,-0.32" style="fill:#d8d8d8;fill-rule:nonzero;"/></g></g></svg>