<?xml version="1.0" encoding="UTF-8" standalone="no"?><!DOCTYPE svg PUBLIC "-//W3C//DTD SVG 1.1//EN" "http://www.w3.org/Graphics/SVG/1.1/DTD/svg11.dtd"><svg width="100%" height="100%" viewBox="0 0 51 32" version="1.1" xmlns="http://www.w3.org/2000/svg" xmlns:xlink="http://www.w3.org/1999/xlink" xml:space="preserve" xmlns:serif="http://www.serif.com/" style="fill-rule:evenodd;clip-rule:evenodd;stroke-linejoin:round;stroke-miterlimit:2;"><g id="g5233"><g id="g294"><path id="path296" d="M15.273,12.872c-1.17,0 -5.911,0.845 -5.911,0.845c0,-0 4.772,0.858 5.911,0.858c0.586,-0 0.61,-0.427 0.609,-0.853c-0.001,-0.425 -0.024,-0.85 -0.609,-0.85" style="fill:#d88574;fill-rule:nonzero;"/></g><g id="g298"><path id="path300" d="M15.253,13.119c-0.832,-0 -4.199,0.6 -4.199,0.6c0,-0 3.389,0.609 4.199,0.609c0.415,0 0.354,-0.302 0.354,-0.605c0,-0.302 0.061,-0.604 -0.354,-0.604" style="fill:#d4d4d4;fill-opacity:0.76;fill-rule:nonzero;"/></g><g id="g302"><path id="path304" d="M15.148,13.36c-0.5,0 -2.523,0.361 -2.523,0.361c0,-0 2.037,0.366 2.523,0.366c0.25,-0 0.105,-0.182 0.105,-0.363c0,-0.182 0.145,-0.364 -0.105,-0.364" style="fill:#d4d4d4;fill-opacity:0.76;fill-rule:nonzero;"/></g><g id="g306"><path id="path308" d="M30.96,9.233c-1.222,-0.196 -2.753,-0.264 -3.912,0.096c-1.159,0.359 -2.487,1.247 -2.994,1.75l-6.773,0.388l-0.699,-0.406c-0.058,0.436 -0.008,1.352 -0.008,1.851c0,2.658 0.038,3.646 0.038,3.646c-0,0 0.331,-0.323 0.785,-0.294c1.146,0.075 3.365,0.426 5.43,0.426c4.566,-0 7.216,0.345 10.897,-0.108c4.383,-0.539 5.874,-2.194 5.874,-2.697c-0,-0.503 -3.411,-3.813 -8.638,-4.652" style="fill:#e8e8e8;fill-rule:nonzero;"/></g><g id="g310"><path id="path312" d="M39.402,13.523c-0.529,0.7 -2.185,1.418 -5.678,1.848c-3.681,0.453 -6.331,0.108 -10.897,0.108c-2.942,0 -5.993,-0.518 -5.993,-0.518l-0.211,1.641c0,0 0.287,-0.372 0.757,-0.311c1.132,0.147 3.368,0.399 5.447,0.399c4.566,0 7.216,0.345 10.897,-0.108c4.383,-0.539 5.874,-2.194 5.874,-2.697c-0,-0.071 -0.067,-0.196 -0.196,-0.362" style="fill-opacity:0.1;fill-rule:nonzero;"/></g><g id="g314"><path id="path316" d="M17.263,11.457l-0.681,-0.396c-0.058,0.436 -0.008,1.352 -0.008,1.851c0,2.658 0.038,3.646 0.038,3.646c-0,0 0.281,-0.274 0.681,-0.294c0.286,-2.136 0.073,-4.079 -0.03,-4.807" style="fill:#d88574;fill-rule:nonzero;"/></g><g id="g318"><path id="path320" d="M24.056,10.979c-0.078,-1.287 -0.798,-2.261 -1.388,-2.851c-0.791,-0.792 -1.687,-1.246 -2.262,-1.407c-0.431,-0.12 -0.757,-0.104 -0.917,0.047c-0.131,0.122 -0.186,0.262 -0.176,0.439c0.013,0.214 0.119,0.464 0.266,0.811c0.276,0.648 0.692,1.629 0.786,3.18c0.002,0.035 0.003,0.07 0.005,0.105l3.69,-0.218c-0.001,-0.036 -0.002,-0.071 -0.004,-0.106" style="fill:#fdfdfd;fill-rule:nonzero;"/></g><g id="g322"><path id="path324" d="M35.928,10.908c-1.779,1.471 -5.133,0.729 -5.133,0.729c0,-0 -0.26,-0.753 0.255,-1.613c0.191,-0.318 0.408,-0.559 0.525,-0.679c-0.114,-0.023 -0.229,-0.045 -0.345,-0.066c-0.133,0.135 -0.379,0.409 -0.595,0.769c-0.584,0.975 -0.29,1.827 -0.29,1.827c0,0 3.814,0.844 5.826,-0.836c-0.08,-0.044 -0.161,-0.087 -0.243,-0.131" style="fill-opacity:0.33;fill-rule:nonzero;"/></g><g id="g326"><path id="path328" d="M31.605,9.345c-0.116,0.12 -0.332,0.361 -0.521,0.679c-0.512,0.86 -0.254,1.613 -0.254,1.613c0,-0 3.331,0.742 5.098,-0.729c-1.2,-0.641 -2.66,-1.225 -4.323,-1.563" style="fill:#e8e8e8;fill-rule:nonzero;"/></g><g id="g330"><path id="path332" d="M20.396,15.895c-0.015,0.669 -0.362,1.11 -0.593,1.404c-0.121,0.152 -0.207,0.262 -0.207,0.349l-0,0.001c-0,0.067 0.052,0.116 0.165,0.155c0.144,0.05 0.433,0.046 0.835,-0.012c0.595,-0.084 1.518,-0.303 2.321,-0.66c0.598,-0.266 1.308,-0.694 1.346,-1.237l-3.867,0Z" style="fill:#fdfdfd;fill-rule:nonzero;"/></g><g id="g334"><path id="path336" d="M37.067,11.573c-0.587,1.045 -1.273,2.707 -1.129,4.591c2.686,-0.714 3.66,-1.873 3.66,-2.279c-0,-0.261 -0.918,-1.277 -2.531,-2.312" style="fill:#cecece;fill-rule:nonzero;"/></g><g id="g338"><path id="path340" d="M37.356,11.763c-0.215,0.356 -0.464,0.829 -0.669,1.387c-0.3,0.821 -0.504,1.824 -0.361,2.904c2.392,-0.718 3.272,-1.783 3.272,-2.169c-0,-0.245 -0.809,-1.155 -2.242,-2.122" style="fill:#fdfdfd;fill-rule:nonzero;"/></g><g id="g342"><path id="path344" d="M16.582,11.061c-0.221,0 -0.401,1.244 -0.401,2.779c0,1.534 0.18,2.778 0.401,2.778c0.221,0 0.4,-1.244 0.4,-2.778c-0,-1.535 -0.179,-2.779 -0.4,-2.779" style="fill:#d8dad9;fill-rule:nonzero;"/></g><g id="g346"><path id="path348" d="M16.582,12.726c-0.127,-0 -0.23,0.499 -0.23,1.114c0,0.615 0.103,1.113 0.23,1.113c0.126,0 0.229,-0.498 0.229,-1.113c0,-0.615 -0.103,-1.114 -0.229,-1.114" style="fill:#aeb2b1;fill-rule:nonzero;"/></g><g id="g350"><path id="path352" d="M16.582,12.726c-0.127,-0 -0.127,2.227 -0,2.227c0.126,0 0.229,-0.498 0.229,-1.113c0,-0.615 -0.103,-1.114 -0.229,-1.114" style="fill:#9da1a0;fill-rule:nonzero;"/></g></g><g><path id="path2" d="M25.564,13.591c-0.11,-0 -0.258,-0.104 -0.444,-0.31c-0.187,-0.207 -0.28,-0.337 -0.28,-0.392c0,-0.011 0.042,0.007 0.127,0.056c0.277,0.169 0.479,0.254 0.608,0.254c0.102,0 0.303,-0.083 0.603,-0.25c0.085,-0.046 0.127,-0.064 0.127,-0.056c0,0.058 -0.096,0.188 -0.289,0.392c-0.192,0.204 -0.343,0.306 -0.452,0.306Zm2.895,-1.425c0.109,-0 0.257,0.103 0.444,0.31c0.186,0.206 0.28,0.338 0.28,0.396c-0,0.011 -0.043,-0.009 -0.127,-0.06c-0.277,-0.17 -0.48,-0.254 -0.608,-0.254c-0.102,-0 -0.302,0.083 -0.599,0.249c-0.088,0.049 -0.131,0.068 -0.131,0.056c-0,-0.057 0.096,-0.188 0.288,-0.392c0.193,-0.203 0.344,-0.305 0.453,-0.305Zm-0.335,-0.439c0.102,-0.04 0.278,0.006 0.527,0.14c0.25,0.133 0.383,0.224 0.4,0.273c0.006,0.011 -0.043,0.009 -0.146,-0.009c-0.104,-0.017 -0.217,-0.033 -0.339,-0.049c-0.122,-0.016 -0.227,-0.014 -0.315,0.006c-0.064,0.023 -0.144,0.084 -0.24,0.183c-0.097,0.099 -0.177,0.187 -0.241,0.263c-0.064,0.076 -0.099,0.108 -0.105,0.097c-0.017,-0.049 0.029,-0.203 0.138,-0.463c0.109,-0.26 0.216,-0.407 0.321,-0.441Zm-2.221,2.303c-0.099,0.04 -0.275,-0.006 -0.527,-0.138c-0.252,-0.132 -0.387,-0.224 -0.405,-0.275c-0.006,-0.012 0.043,-0.009 0.147,0.008c0.103,0.017 0.217,0.035 0.341,0.052c0.124,0.017 0.228,0.014 0.312,-0.009c0.065,-0.023 0.146,-0.084 0.243,-0.183c0.098,-0.099 0.178,-0.186 0.241,-0.262c0.062,-0.076 0.097,-0.109 0.103,-0.097c0.017,0.049 -0.029,0.203 -0.138,0.463c-0.11,0.259 -0.215,0.406 -0.317,0.441Zm1.745,-2.609c0.105,-0.063 0.293,-0.076 0.566,-0.039c0.273,0.038 0.426,0.076 0.461,0.117c0.012,0.011 -0.052,0.027 -0.192,0.047c-0.309,0.052 -0.501,0.108 -0.575,0.17c-0.075,0.062 -0.18,0.272 -0.317,0.631c-0.024,0.048 -0.038,0.073 -0.044,0.073c-0.041,-0.023 -0.055,-0.178 -0.044,-0.465c0.012,-0.287 0.06,-0.465 0.145,-0.534Zm-1.273,2.914c-0.105,0.064 -0.294,0.077 -0.566,0.039c-0.273,-0.037 -0.425,-0.076 -0.457,-0.116c-0.015,-0.011 0.048,-0.027 0.188,-0.047c0.309,-0.052 0.5,-0.11 0.575,-0.175c0.074,-0.064 0.17,-0.241 0.286,-0.531c0.047,-0.112 0.076,-0.168 0.088,-0.168c0.032,0.023 0.042,0.178 0.03,0.467c-0.011,0.288 -0.059,0.465 -0.144,0.531Zm0.781,-2.503c-0.083,-0.268 -0.1,-0.449 -0.048,-0.542c0.051,-0.093 0.215,-0.168 0.494,-0.224c0.278,-0.056 0.441,-0.071 0.487,-0.045c0.012,0.006 0,0.018 -0.035,0.039c-0.035,0.02 -0.079,0.047 -0.133,0.081c-0.054,0.035 -0.113,0.071 -0.177,0.108c-0.155,0.089 -0.254,0.171 -0.298,0.245c-0.043,0.075 -0.068,0.296 -0.074,0.663c-0.006,0.081 -0.014,0.121 -0.026,0.121c-0.044,-0.029 -0.107,-0.177 -0.19,-0.446Zm-0.285,2.092c0.083,0.269 0.099,0.45 0.046,0.543c-0.052,0.093 -0.218,0.168 -0.496,0.226c-0.279,0.057 -0.44,0.072 -0.483,0.043c-0.006,-0.006 0.006,-0.019 0.037,-0.039c0.03,-0.02 0.075,-0.047 0.133,-0.082l0.175,-0.103c0.155,-0.095 0.252,-0.177 0.291,-0.248c0.039,-0.07 0.065,-0.292 0.077,-0.665c0.005,-0.074 0.014,-0.112 0.026,-0.112c0.046,0.023 0.111,0.169 0.194,0.437Zm-0.091,-2.075c-0.174,-0.222 -0.252,-0.386 -0.234,-0.49c0.017,-0.105 0.147,-0.231 0.389,-0.379c0.242,-0.148 0.39,-0.219 0.446,-0.213c0.012,-0 -0.014,0.038 -0.077,0.114c-0.062,0.076 -0.135,0.169 -0.218,0.28c-0.083,0.11 -0.132,0.205 -0.147,0.284c-0.014,0.079 0.041,0.299 0.166,0.661c0.024,0.057 0.029,0.086 0.018,0.086c-0.056,-0.006 -0.17,-0.12 -0.343,-0.343Zm0.465,2.06c0.172,0.224 0.25,0.388 0.232,0.491c-0.017,0.103 -0.146,0.229 -0.387,0.377c-0.241,0.148 -0.39,0.219 -0.448,0.213c-0.012,-0 0.014,-0.038 0.076,-0.114c0.063,-0.076 0.136,-0.17 0.219,-0.28c0.083,-0.111 0.132,-0.205 0.146,-0.284c0.015,-0.079 -0.04,-0.299 -0.166,-0.661c-0.023,-0.057 -0.029,-0.086 -0.017,-0.086c0.058,0.006 0.173,0.12 0.345,0.344Zm-1.198,-2.301c-0.017,-0.107 0.061,-0.272 0.236,-0.493c0.175,-0.221 0.289,-0.334 0.341,-0.34c0.012,0 0,0.046 -0.035,0.136c-0.035,0.09 -0.07,0.201 -0.107,0.331c-0.036,0.131 -0.049,0.23 -0.037,0.297c0.012,0.068 0.058,0.157 0.138,0.267c0.08,0.111 0.151,0.204 0.214,0.28c0.063,0.076 0.088,0.114 0.077,0.114c-0.053,0.012 -0.199,-0.057 -0.44,-0.206c-0.24,-0.15 -0.369,-0.278 -0.387,-0.386Zm1.546,2.164c0.238,0.149 0.365,0.276 0.383,0.381c0.017,0.104 -0.062,0.267 -0.237,0.488c-0.174,0.221 -0.288,0.334 -0.341,0.34c-0.011,0 0,-0.045 0.035,-0.135c0.035,-0.091 0.071,-0.201 0.107,-0.332c0.037,-0.13 0.05,-0.229 0.04,-0.297c-0.01,-0.067 -0.056,-0.156 -0.138,-0.267c-0.082,-0.11 -0.154,-0.204 -0.216,-0.28c-0.063,-0.076 -0.089,-0.114 -0.077,-0.114c0.058,-0.005 0.206,0.066 0.444,0.216Zm-1.933,-1.768c-0.051,-0.096 -0.034,-0.275 0.052,-0.538c0.086,-0.262 0.156,-0.408 0.208,-0.437c0.015,0.012 0.02,0.06 0.015,0.145c-0.004,0.084 -0.002,0.196 0.005,0.335c0.007,0.14 0.027,0.234 0.059,0.284c0.032,0.051 0.076,0.099 0.131,0.145c0.055,0.046 0.113,0.087 0.173,0.122c0.06,0.036 0.118,0.071 0.175,0.106c0.057,0.034 0.101,0.062 0.133,0.082c0.032,0.02 0.045,0.033 0.04,0.038c-0.047,0.029 -0.211,0.013 -0.492,-0.047c-0.282,-0.06 -0.448,-0.138 -0.499,-0.235Zm2.703,1.748c0.051,0.096 0.033,0.276 -0.053,0.538c-0.086,0.263 -0.154,0.409 -0.203,0.437c-0.018,-0.011 -0.024,-0.059 -0.018,-0.144c0.006,-0.085 0.003,-0.197 -0.008,-0.336c-0.012,-0.139 -0.033,-0.234 -0.062,-0.284c-0.029,-0.05 -0.07,-0.098 -0.124,-0.144c-0.054,-0.046 -0.112,-0.087 -0.173,-0.123c-0.061,-0.036 -0.12,-0.071 -0.177,-0.105c-0.057,-0.035 -0.101,-0.062 -0.134,-0.082c-0.032,-0.02 -0.045,-0.033 -0.039,-0.039c0.047,-0.026 0.211,-0.009 0.492,0.05c0.281,0.059 0.448,0.136 0.499,0.232Zm-2.919,-1.237c-0.085,-0.075 -0.132,-0.257 -0.14,-0.545c-0.009,-0.288 0.004,-0.443 0.039,-0.463c0.006,-0.006 0.013,0.001 0.022,0.02c0.009,0.018 0.018,0.045 0.028,0.079c0.01,0.035 0.024,0.073 0.042,0.116c0.017,0.043 0.036,0.089 0.057,0.136c0.02,0.047 0.04,0.094 0.061,0.14c0.038,0.086 0.084,0.156 0.14,0.211c0.076,0.063 0.294,0.128 0.656,0.194c0.076,0.017 0.113,0.031 0.113,0.043c-0.035,0.04 -0.188,0.077 -0.461,0.112c-0.273,0.034 -0.458,0.02 -0.557,-0.043Zm3.144,0.727c0.079,0.075 0.122,0.256 0.131,0.545c0.009,0.288 -0.003,0.442 -0.035,0.462c-0.006,0.006 -0.013,-0 -0.022,-0.019c-0.009,-0.019 -0.019,-0.045 -0.03,-0.08c-0.012,-0.034 -0.027,-0.072 -0.044,-0.114c-0.018,-0.041 -0.037,-0.087 -0.057,-0.135c-0.02,-0.049 -0.041,-0.096 -0.061,-0.142c-0.038,-0.084 -0.085,-0.154 -0.14,-0.211c-0.076,-0.063 -0.295,-0.128 -0.656,-0.194c-0.073,-0.017 -0.109,-0.032 -0.109,-0.043c0.032,-0.04 0.184,-0.077 0.457,-0.11c0.272,-0.033 0.461,-0.019 0.566,0.041Zm-2.653,-0.312c-0.252,0.131 -0.428,0.176 -0.529,0.136c-0.1,-0.041 -0.204,-0.191 -0.31,-0.45c-0.107,-0.26 -0.148,-0.413 -0.125,-0.459c0.006,-0.011 0.04,0.02 0.101,0.095c0.213,0.258 0.366,0.403 0.461,0.435c0.095,0.031 0.204,0.038 0.328,0.021c0.124,-0.017 0.238,-0.033 0.341,-0.047c0.104,-0.014 0.153,-0.016 0.147,-0.004c-0.024,0.051 -0.161,0.142 -0.414,0.273Zm2.152,-0.103c0.252,-0.131 0.429,-0.176 0.529,-0.136c0.101,0.04 0.204,0.189 0.311,0.446c0.106,0.256 0.151,0.414 0.133,0.471c-0.006,0.011 -0.039,-0.022 -0.1,-0.099c-0.219,-0.261 -0.376,-0.408 -0.471,-0.439c-0.094,-0.032 -0.203,-0.039 -0.325,-0.022c-0.333,0.046 -0.496,0.063 -0.49,0.052c0.023,-0.052 0.161,-0.143 0.413,-0.273Z" style="fill:#262626;fill-rule:nonzero;"/></g></svg>