<?xml version="1.0" encoding="UTF-8"?> <svg viewBox="0 0 2400 800" preserveAspectRatio="none" xmlns="http://www.w3.org/2000/svg" xmlns:xlink="http://www.w3.org/1999/xlink"> <defs> <filter id="glow6"> <feGaussianBlur stdDeviation="2.5" result="coloredBlur"/> <feMerge> <feMergeNode in="coloredBlur"/> <feMergeNode in="SourceGraphic"/> </feMerge> </filter> <path id="patternCurve1" d="M 0 125 Q 100 75, 200 125 T 400 125 T 600 125 T 800 125 T 1000 125 T 1200 125 T 1400 125 T 1600 125 T 1800 125 T 2000 125 T 2200 125 T 2400 125" fill="none"/> <path id="patternCurve2" d="M 0 100 Q 100 150, 200 100 T 400 100 T 600 100 T 800 100 T 1000 100 T 1200 100 T 1400 100 T 1600 100 T 1800 100 T 2000 100 T 2200 100 T 2400 100" fill="none"/> <path id="patternCurve3" d="M 0 175 Q 100 125, 200 175 T 400 175 T 600 175 T 800 175 T 1000 175 T 1200 175 T 1400 175 T 1600 175 T 1800 175 T 2000 175 T 2200 175 T 2400 175" fill="none"/> <path id="patternCurve4" d="M 0 150 Q 100 100, 200 150 T 400 150 T 600 150 T 800 150 T 1000 150 T 1200 150 T 1400 150 T 1600 150 T 1800 150 T 2000 150 T 2200 150 T 2400 150" fill="none"/> <path id="patternCurve5" d="M 0 75 Q 100 125, 200 75 T 400 75 T 600 75 T 800 75 T 1000 75 T 1200 75 T 1400 75 T 1600 75 T 1800 75 T 2000 75 T 2200 75 T 2400 75" fill="none"/> <pattern id="curveNetwork" width="2400" height="200" patternUnits="userSpaceOnUse"> <use xlink:href="#patternCurve1" stroke="white" stroke-width="0.6" opacity="0.25"/> <use xlink:href="#patternCurve2" stroke="white" stroke-width="0.5" opacity="0.22"/> <use xlink:href="#patternCurve3" stroke="white" stroke-width="0.5" opacity="0.18"/> <use xlink:href="#patternCurve4" stroke="white" stroke-width="0.4" opacity="0.18"/> <use xlink:href="#patternCurve5" stroke="white" stroke-width="0.5" opacity="0.22"/> </pattern> </defs> <rect width="100%" height="100%" fill="url(#curveNetwork)"/> <g transform="translate(0, 0)"> <circle r="1" fill="white" filter="url(#glow6)" opacity="0.99"/> <circle r="1" fill="white" filter="url(#glow6)" opacity="0.99"/> <circle r="1" fill="white" filter="url(#glow6)" opacity="0.99"/> <circle r="1" fill="white" filter="url(#glow6)" opacity="0.99"/> </g> <g transform="translate(0, 200)"> <circle r="1" fill="white" filter="url(#glow6)" opacity="0.99"/> <circle r="1" fill="white" filter="url(#glow6)" opacity="0.99"/> <circle r="1" fill="white" filter="url(#glow6)" opacity="0.99"/> <circle r="1" fill="white" filter="url(#glow6)" opacity="0.99"/> <circle r="1" fill="white" filter="url(#glow6)" opacity="0.99"/> </g> <g transform="translate(0, 400)"> <circle r="1" fill="white" filter="url(#glow6)" opacity="0.99"/> <circle r="1" fill="white" filter="url(#glow6)" opacity="0.99"/> <circle r="1" fill="white" filter="url(#glow6)" opacity="0.99"/> </g> <g transform="translate(0, 600)"> <circle r="1" fill="white" filter="url(#glow6)" opacity="0.99"/> <circle r="1" fill="white" filter="url(#glow6)" opacity="0.99"/> <circle r="1" fill="white" filter="url(#glow6)" opacity="0.99"/> <circle r="1" fill="white" filter="url(#glow6)" opacity="0.99"/> <circle r="1" fill="white" filter="url(#glow6)" opacity="0.99"/> <circle r="1" fill="white" filter="url(#glow6)" opacity="0.99"/> </g> <g transform="translate(0, 800)"> <circle r="1" fill="white" filter="url(#glow6)" opacity="0.99"/> <circle r="1" fill="white" filter="url(#glow6)" opacity="0.99"/> <circle r="1" fill="white" filter="url(#glow6)" opacity="0.99"/> <circle r="1" fill="white" filter="url(#glow6)" opacity="0.99"/> </g> <g transform="translate(0, 1000)"> <circle r="1" fill="white" filter="url(#glow6)" opacity="0.99"/> <circle r="1" fill="white" filter="url(#glow6)" opacity="0.99"/> <circle r="1" fill="white" filter="url(#glow6)" opacity="0.99"/> <circle r="1" fill="white" filter="url(#glow6)" opacity="0.99"/> </g> <g transform="translate(0, 1200)"> <circle r="1" fill="white" filter="url(#glow6)" opacity="0.99"/> <circle r="1" fill="white" filter="url(#glow6)" opacity="0.99"/> <circle r="1" fill="white" filter="url(#glow6)" opacity="0.99"/> <circle r="1" fill="white" filter="url(#glow6)" opacity="0.99"/> <circle r="1" fill="white" filter="url(#glow6)" opacity="0.99"/> </g> <g transform="translate(0, 1400)"> <circle r="1" fill="white" filter="url(#glow6)" opacity="0.99"/> <circle r="1" fill="white" filter="url(#glow6)" opacity="0.99"/> <circle r="1" fill="white" filter="url(#glow6)" opacity="0.99"/> </g> <g transform="translate(0, 1600)"> <circle r="1" fill="white" filter="url(#glow6)" opacity="0.99"/> <circle r="1" fill="white" filter="url(#glow6)" opacity="0.99"/> <circle r="1" fill="white" filter="url(#glow6)" opacity="0.99"/> <circle r="1" fill="white" filter="url(#glow6)" opacity="0.99"/> <circle r="1" fill="white" filter="url(#glow6)" opacity="0.99"/> <circle r="1" fill="white" filter="url(#glow6)" opacity="0.99"/> </g> <g transform="translate(0, 1800)"> <circle r="1" fill="white" filter="url(#glow6)" opacity="0.99"/> <circle r="1" fill="white" filter="url(#glow6)" opacity="0.99"/> <circle r="1" fill="white" filter="url(#glow6)" opacity="0.99"/> <circle r="1" fill="white" filter="url(#glow6)" opacity="0.99"/> </g> <g transform="translate(0, 2000)"> <circle r="1" fill="white" filter="url(#glow6)" opacity="0.99"/> <circle r="1" fill="white" filter="url(#glow6)" opacity="0.99"/> <circle r="1" fill="white" filter="url(#glow6)" opacity="0.99"/> <circle r="1" fill="white" filter="url(#glow6)" opacity="0.99"/> </g> <g transform="translate(0, 2200)"> <circle r="1" fill="white" filter="url(#glow6)" opacity="0.99"/> <circle r="1" fill="white" filter="url(#glow6)" opacity="0.99"/> <circle r="1" fill="white" filter="url(#glow6)" opacity="0.99"/> <circle r="1" fill="white" filter="url(#glow6)" opacity="0.99"/> <circle r="1" fill="white" filter="url(#glow6)" opacity="0.99"/> </g> <g transform="translate(0, 2400)"> <circle r="1" fill="white" filter="url(#glow6)" opacity="0.99"/> <circle r="1" fill="white" filter="url(#glow6)" opacity="0.99"/> <circle r="1" fill="white" filter="url(#glow6)" opacity="0.99"/> </g> <g transform="translate(0, 2600)"> <circle r="1" fill="white" filter="url(#glow6)" opacity="0.99"/> <circle r="1" fill="white" filter="url(#glow6)" opacity="0.99"/> <circle r="1" fill="white" filter="url(#glow6)" opacity="0.99"/> <circle r="1" fill="white" filter="url(#glow6)" opacity="0.99"/> <circle r="1" fill="white" filter="url(#glow6)" opacity="0.99"/> <circle r="1" fill="white" filter="url(#glow6)" opacity="0.99"/> </g> <g transform="translate(0, 2800)"> <circle r="1" fill="white" filter="url(#glow6)" opacity="0.99"/> <circle r="1" fill="white" filter="url(#glow6)" opacity="0.99"/> <circle r="1" fill="white" filter="url(#glow6)" opacity="0.99"/> <circle r="1" fill="white" filter="url(#glow6)" opacity="0.99"/> </g> </svg>
