<svg width="118.52mm" height="21.426mm" version="1.0" viewBox="0 0 447.94 80.981" xmlns="http://www.w3.org/2000/svg"><g transform="translate(-147.85 -65.925)" fill="#0143d6"><path d="m161.65 120.11c-4.63-0.0192-13.808-11.999-13.802-13.549 4e-3 -0.96326 9.2096 5.9904 13.835 6.0096 4.641 0.0193 13.968-6.8588 13.963-5.8943-7e-3 1.5486-9.3603 13.453-13.996 13.434z" fill="#57cc00"/><g fill="#0143d6"><path d="m216.21 92.72c4.6299 0.01919 13.808 11.999 13.802 13.549-4e-3 0.96326-9.2096-5.9904-13.835-6.0096-4.6409-0.0193-13.968 6.8588-13.963 5.8943 7e-3 -1.5486 9.3603-13.453 13.996-13.434z"/><path d="m209.88 84.216c4.3573-1.5655 17.08 6.5526 17.603 8.0113 0.32553 0.90657-10.703-2.4793-15.056-0.91543-4.3676 1.5692-10.779 11.222-11.105 10.315-0.52329-1.4576 4.1947-15.843 8.5577-17.41z"/><path d="m167.98 128.62c-4.3573 1.5655-17.08-6.5526-17.603-8.0113-0.32551-0.90658 10.703 2.4793 15.056 0.91543 4.3676-1.5692 10.779-11.222 11.105-10.315 0.5233 1.4575-4.1946 15.843-8.5577 17.41z"/><path d="m201.02 78.389c3.5591-2.9614 18.291 0.31587 19.282 1.5075 0.61599 0.74059-10.905 1.3309-14.461 4.2891-3.5675 2.9684-6.2911 14.232-6.9078 13.491-0.99024-1.1907-1.4769-16.322 2.0869-19.287z"/><path d="m176.83 134.44c-3.5591 2.9614-18.291-0.3159-19.282-1.5074-0.61596-0.74068 10.905-1.3309 14.461-4.2892 3.5675-2.9684 6.2911-14.232 6.9078-13.491 0.99022 1.1907 1.4769 16.322-2.0869 19.287z"/><path d="m190.71 75.943c2.3316-4.0001 17.296-5.959 18.634-5.1782 0.83212 0.48528-9.7926 4.9805-12.122 8.9764-2.3371 4.0095-1.0439 15.526-1.8771 15.04-1.3378-0.78018-6.9703-14.833-4.6356-18.838z"/><path d="m187.15 136.89c-2.3316 4.0001-17.296 5.959-18.634 5.1782-0.8321-0.48519 9.7926-4.9804 12.122-8.9764 2.3371-4.0095 1.044-15.526 1.8771-15.04 1.3378 0.78018 6.9703 14.833 4.6356 18.838z"/><path d="m180.18 77.172c0.82289-4.5563 14.215-11.515 15.74-11.239 0.94789 0.1714-7.4986 8.0294-8.3206 12.581-0.82483 4.5671 4.3291 14.946 3.38 14.775-1.5239-0.2756-11.623-11.554-10.799-16.116z"/><path d="m197.68 135.66c-0.82289 4.5563-14.215 11.515-15.74 11.239-0.94791-0.17137 7.4986-8.0294 8.3206-12.581 0.82485-4.5671-4.3291-14.946-3.38-14.775 1.5239 0.27559 11.623 11.554 10.799 16.116z"/><path d="m170.7 81.929c-0.7851-4.5629 9.4189-15.682 10.946-15.945 0.94934-0.16314-4.3002 10.11-3.5159 14.668 0.78693 4.5737 9.18 12.564 8.2294 12.728-1.5263 0.26223-14.874-6.882-15.66-11.451z"/><path d="m207.15 130.9c0.78509 4.5629-9.4189 15.682-10.946 15.945-0.94935 0.16325 4.3002-10.11 3.5159-14.668-0.78693-4.5738-9.18-12.564-8.2294-12.728 1.5263-0.26225 14.874 6.8821 15.66 11.451z"/><path d="m163.43 89.639c-2.2984-4.0193 3.4872-17.958 4.8328-18.727 0.8363-0.478-0.58308 10.971 1.7129 14.986 2.3038 4.0288 12.924 8.6669 12.086 9.1455-1.3445 0.76846-16.331-1.3798-18.632-5.4044z"/><path d="m214.43 123.19c2.2983 4.0192-3.4872 17.958-4.8328 18.727-0.83631 0.47805 0.58308-10.971-1.7129-14.986-2.3038-4.0288-12.924-8.6669-12.086-9.1456 1.3445-0.76842 16.331 1.3799 18.632 5.4045z"/><path d="m159.23 99.372c-3.5344-2.9908-2.8651-18.068-1.8636-19.251 0.62237-0.73522 3.2043 10.509 6.735 13.496 3.5428 2.9979 15.109 3.7241 14.485 4.4602-1.0006 1.1819-15.818 4.2888-19.357 1.294z"/><path d="m218.63 113.46c3.5344 2.9908 2.8651 18.068 1.8637 19.251-0.62235 0.73524-3.2044-10.509-6.7351-13.496-3.5428-2.9979-15.109-3.7241-14.485-4.4603 1.0006-1.1819 15.818-4.2888 19.357-1.294z"/><path d="m158.61 109.96c-4.3442-1.6016-8.8718-15.998-8.3354-17.452 0.33341-0.90372 6.6053 8.779 10.945 10.379 4.3544 1.6054 15.471-1.6679 15.137-0.76305-0.53602 1.4529-13.397 9.4401-17.747 7.8364z"/><path d="m219.25 102.88c4.3442 1.6016 8.8718 15.998 8.3353 17.452-0.33337 0.90375-6.6053-8.779-10.945-10.379-4.3545-1.6054-15.471 1.6679-15.137 0.76303 0.53603-1.4529 13.397-9.4401 17.747-7.8364z"/><path d="m260.37 123.94h5.2816l22.447-36.307h-5.8684l-19.146 31.787-19.072-31.787h-5.9418l22.3 36.307m33.123 0h5.4283v-26.874h-5.4283v26.874m0-30.116h5.4283c0-2.0634 0.90472-5.1586 0-6.1903-0.90474-1.0317-4.5236-1.0317-5.4283 0-0.90472 1.0317 0 4.1269 0 6.1903m14.68 30.116h5.4283v-15.672c0-5.0113 5.7461-7.1961 13.302-7.6874l0.54746-3.4379c-5.795 0.19652-11.722 0.80811-13.849 3.7559l-0.0855-3.4903-5.5134 2.5691 0.17055 23.963m26.934 0h5.4283v-23.582h9.0227v-3.2917h-9.0227v-10.169l-5.5046 2.376 0.0763 7.7932-7.737 0.0645-0.46729 3.4497 8.2043-0.22248v23.582m55.273-26.874h-5.4283v13.805c0 3.2917-0.73355 5.3551-2.4207 7.0255-2.274 2.1126-5.8684 3.3408-10.05 3.3408-4.4747 0-8.2892-1.2282-10.123-3.39-1.247-1.3756-1.9072-3.5373-1.9072-6.2886v-14.493h-5.4283v14.493c0 3.9795 1.027 6.7799 3.1543 8.7451 3.0076 2.8004 7.849 4.2743 13.864 4.2743 6.2352 0 10.196-1.4739 12.91-4.8147v4.176h5.4283v-26.874m50.165 0h-5.4283v4.7656c-3.9612-3.7338-8.876-5.4043-15.845-5.4043-12.03 0-21.126 6.0921-21.126 14.149 0 8.0081 9.1694 14.002 21.493 14.002 6.822 0 11.223-1.523 15.478-5.3552v4.7164h5.4283v-26.874m-21.126 2.7021c8.8026 0 15.698 4.6182 15.698 10.612 0 6.0921-6.7487 10.858-15.405 10.858-9.096 0-16.065-4.7656-16.065-10.907 0-5.8465 7.0421-10.563 15.771-10.563m30.397 24.172h5.4283v-36.307h-5.4283v36.307m14.68 0h5.4283v-15.672c0-5.3552 4.0345-8.4995 10.783-8.4995 3.301 0 6.3819 0.88436 8.3625 2.4565 1.7605 1.3756 2.4941 3.2426 2.4941 6.043v15.672h5.4283v-15.574c0-2.6039 0.58683-4.2743 1.9072-5.5516 1.9072-1.9652 5.2816-3.0952 9.096-3.0952 3.5211 0 6.602 0.93346 8.4358 2.5547 1.4671 1.3757 2.2006 3.3899 2.2006 6.0921v15.574h5.4283v-15.967c0-3.5374-0.95363-5.8464-3.2276-7.7625-2.7875-2.4565-7.3355-3.8321-12.544-3.8321-6.2352 0-10.563 1.6213-13.937 5.2078-3.1543-3.5865-7.1155-5.1587-13.131-5.1587-5.0615 0-8.2158 1.0318-11.297 3.7339v-3.0952h-5.4283v26.874m68.869 0h5.4283v-26.874h-5.4283v26.874m0-30.116h5.4283c0-2.0634 0.90471-5.1586 0-6.1903-0.90474-1.0317-4.5236-1.0317-5.4283 0-0.90469 1.0317 0 4.1269 0 6.1903m14.68 30.116h5.4283v-14.788c0-2.9969 0.58684-4.5691 2.1273-6.0921 2.1273-2.0635 5.8684-3.2917 10.123-3.2917 3.9612 0 7.5556 1.0809 9.7562 2.8987 1.9072 1.6704 2.6408 3.6356 2.6408 7.1729v14.1h5.4283v-14.1c0-4.5199-0.9536-6.9273-3.521-9.2364-3.1543-2.653-7.9957-4.176-13.644-4.176-5.2816 0-9.5362 1.3756-12.91 4.1269v-3.4882h-5.4283v26.874"/></g><text transform="scale(1.0308 .97009)" x="566.94556" y="97.726379" fill="#000000" font-family="'Bitstream Vera Sans'" font-size="7.95px" stroke-width=".66252pt" style="line-height:0%" xml:space="preserve"><tspan x="566.94556" y="97.726379" fill="#000000" font-family="'Bitstream Vera Sans'" font-size="7.95px" stroke-width=".66252pt" style="line-height:125%">TM</tspan></text></g></svg>
