<svg width="250" height="250" version="1.1" viewBox="0 -192 250 250" xmlns="http://www.w3.org/2000/svg"><g transform="translate(-80.847 -37.244)"><g transform="matrix(8.2941,0,0,8.4153,-1024.5,-793.81)"><g transform="matrix(.88818 0 0 .88818 21.832 12.96)"><g fill="#0044d6"><path d="m182.52 118.05c-76.064-62.858-76.064-62.858 0 0z"/><path d="m191.49 119.45c-85.04-64.255-85.04-64.255 0 0z"/></g></g><path d="m148.11 99.404c-4.6012-0.01936-13.722-12.098-13.716-13.661 4e-3 -0.97125 9.1522 6.0401 13.749 6.0594 4.6121 0.01946 13.881-6.9157 13.876-5.9432-7e-3 1.5614-9.302 13.565-13.909 13.545z" fill="#58cc00" stroke-width=".1349"/></g></g></svg>
