<svg width="38.423mm" height="33.847mm" version="1.1" viewBox="0 0 38.423 33.847" xmlns="http://www.w3.org/2000/svg"><g transform="translate(-87.842 -137.58)"><g transform="matrix(.66146 0 0 -.66146 62.743 444.72)"><path d="m80.253 452.85-2.6611 1.8094c-3.0438 2.07-8.884 1.4602-10.323-0.65606-0.902-1.3269-16.969-24.953-16.969-24.953-1.1493-1.6908-0.96768-3.8184 0.4061-4.7526l11.194-7.6121c1.3744-0.93417 3.4197-0.321 4.569 1.3698 0 0 16.373 24.078 16.969 24.953 1.4395 2.117-0.46239 7.9914-3.1845 9.8423" fill="#f5f0e7"/><path d="m94.265 428.01-12.398 11.388c-1.5212 1.3979-3.3205 1.6988-4.0188 0.67281l-6.7-9.853c-0.69761-1.026-0.02949-2.9915 1.4917-4.3894l12.398-11.388c1.5219-1.3979 3.3212-1.6995 4.0188-0.67281l6.7 9.8523c0.69761 1.0266 0.0302 2.9915-1.4917 4.3894" fill="#f5f0e7"/><g fill="#dfd1b6"><path d="m85.197 433.99c-0.84169 0.5723-1.8054 0.62189-2.1532 0.11124l-1.0072-1.481c-0.34713-0.51131 0.05361-1.3892 0.8953-1.9615 0.84102-0.57229 1.8054-0.62255 2.1525-0.11124l1.0072 1.481c0.3478 0.51065-0.0529 1.3892-0.89463 1.9615"/><path d="m89.201 430.55c-0.84169 0.57229-1.8053 0.62188-2.1531 0.11124l-1.0072-1.481c-0.34713-0.51132 0.0536-1.3892 0.8953-1.9615 0.84102-0.5723 1.8054-0.62256 2.1525-0.11124l1.0072 1.481c0.3478 0.51064-0.0529 1.3892-0.89464 1.9615"/><path d="m93.095 426.95c-0.84169 0.57229-1.8054 0.62189-2.1532 0.11124l-1.0072-1.481c-0.34713-0.51131 0.0536-1.3892 0.89531-1.9615 0.84102-0.5723 1.8053-0.62256 2.1525-0.11124l1.0072 1.481c0.3478 0.51064-0.0529 1.3892-0.89463 1.9615"/><path d="m82.501 430.03c-0.84169 0.57229-1.806 0.62188-2.1531 0.11124l-1.0072-1.481c-0.34713-0.51132 0.05361-1.3892 0.8953-1.9615 0.84102-0.5723 1.8053-0.62256 2.1525-0.11124l1.0072 1.481c0.3478 0.51064-0.0529 1.3892-0.89463 1.9615"/><path d="m86.506 426.59c-0.84169 0.5723-1.806 0.62189-2.1532 0.11124l-1.0072-1.481c-0.34713-0.51131 0.0529-1.3892 0.8953-1.9615 0.84102-0.57229 1.8054-0.62255 2.1525-0.11124l1.0072 1.481c0.34781 0.51065-0.0529 1.3892-0.89463 1.9615"/><path d="m90.399 422.99c-0.84169 0.5723-1.806 0.62189-2.1532 0.11124l-1.0072-1.481c-0.34713-0.51131 0.0536-1.3892 0.89531-1.9615 0.84102-0.57229 1.8053-0.62255 2.1525-0.11124l1.0072 1.481c0.3478 0.51065-0.0529 1.3892-0.89463 1.9615"/><path d="m79.837 426.11c-0.84169 0.5723-1.806 0.62189-2.1531 0.11125l-1.0072-1.481c-0.34713-0.51132 0.05294-1.3892 0.8953-1.9615 0.84102-0.5723 1.8053-0.62256 2.1525-0.11125l1.0072 1.481c0.3478 0.51065-0.05294 1.3892-0.89463 1.9615"/><path d="m83.841 422.67c-0.84169 0.5723-1.806 0.62189-2.1531 0.11124l-1.0072-1.481c-0.34713-0.51131 0.05294-1.3892 0.89463-1.9615s1.806-0.62256 2.1532-0.11124l1.0072 1.481c0.3478 0.51064-0.0529 1.3892-0.89463 1.9615"/><path d="m87.735 419.07c-0.84169 0.5723-1.806 0.62189-2.1531 0.11124l-1.0072-1.481c-0.34713-0.51131 0.0529-1.3892 0.8953-1.9615 0.84102-0.57229 1.8054-0.62255 2.1525-0.11124l1.0072 1.481c0.3478 0.51065-0.0529 1.3892-0.89464 1.9615"/></g><path d="m64.653 451.1-15.148 7.3427c-1.859 0.90134-3.9317 0.80015-4.63-0.22583l-6.7-9.853c-0.69761-1.026 0.24393-2.5887 2.1029-3.4901l15.148-7.3434c1.859-0.90066 3.9324-0.79947 4.63 0.22651l6.7 9.853c0.69761 1.026-0.24393 2.5887-2.1029 3.4901" fill="#f5f0e7"/><g fill="#dfd1b6"><path d="m58.61 452.07c-0.84169 0.5723-1.8053 0.62189-2.1531 0.11125l-1.0072-1.481c-0.34713-0.51132 0.05361-1.3892 0.8953-1.9615 0.84102-0.5723 1.8053-0.62256 2.1525-0.11125l1.0072 1.481c0.3478 0.51065-0.05294 1.3892-0.89463 1.9615"/><path d="m53.94 454.53c-0.84169 0.57229-1.806 0.62188-2.1531 0.11124l-1.0072-1.481c-0.34713-0.51131 0.05294-1.3892 0.8953-1.9615 0.84102-0.5723 1.8053-0.62256 2.1525-0.11124l1.0072 1.481c0.3478 0.51064-0.05294 1.3892-0.89463 1.9615"/><path d="m49.158 456.83c-0.84169 0.5723-1.8053 0.62189-2.1531 0.11124l-1.0072-1.481c-0.34713-0.51131 0.05361-1.3892 0.8953-1.9615 0.84102-0.5723 1.8053-0.62256 2.1525-0.11124l1.0072 1.481c0.3478 0.51064-0.05294 1.3892-0.89463 1.9615"/><path d="m55.914 448.11c-0.84169 0.57229-1.8053 0.62188-2.1531 0.11124l-1.0072-1.481c-0.34713-0.51132 0.05361-1.3892 0.8953-1.9615 0.84102-0.5723 1.8053-0.62256 2.1525-0.11124l1.0072 1.481c0.3478 0.51064-0.05294 1.3892-0.89463 1.9615"/><path d="m51.244 450.57c-0.84169 0.5723-1.8053 0.62189-2.1531 0.11125l-1.0072-1.481c-0.34713-0.51131 0.05361-1.3892 0.8953-1.9615 0.84102-0.5723 1.8053-0.62256 2.1525-0.11125l1.0072 1.481c0.3478 0.51065-0.05294 1.3892-0.89463 1.9615"/><path d="m46.462 452.86c-0.84169 0.57229-1.806 0.62188-2.1531 0.11124l-1.0072-1.481c-0.34713-0.51132 0.05294-1.3892 0.8953-1.9615 0.84102-0.5723 1.8053-0.62256 2.1525-0.11125l1.0072 1.481c0.3478 0.51064-0.05294 1.3892-0.89463 1.9615"/><path d="m53.25 444.19c-0.84169 0.57229-1.8053 0.62188-2.1531 0.11124l-1.0072-1.481c-0.34713-0.51132 0.05361-1.3892 0.8953-1.9615 0.84102-0.5723 1.8053-0.62256 2.1525-0.11124l1.0072 1.481c0.3478 0.51064-0.05294 1.3892-0.89463 1.9615"/><path d="m48.579 446.65c-0.84169 0.5723-1.8053 0.62189-2.1531 0.11125l-1.0072-1.481c-0.34713-0.51131 0.05361-1.3892 0.8953-1.9615 0.84102-0.5723 1.8053-0.62256 2.1525-0.11125l1.0072 1.481c0.3478 0.51065-0.05294 1.3892-0.89463 1.9615"/><path d="m43.798 448.95c-0.84169 0.57229-1.806 0.62188-2.1531 0.11124l-1.0072-1.481c-0.34713-0.51132 0.05294-1.3892 0.89463-1.9615s1.806-0.62256 2.1531-0.11125l1.0072 1.481c0.3478 0.51064-0.05294 1.3892-0.89463 1.9615"/></g><path d="m73.82 463.02c-1.3966-2.054 0.8953-6.0473 5.1192-8.9195s8.7801-3.5356 10.177-1.4823z" fill="#d8dad9"/><g fill="#f7f4ed"><path d="m83.95 461.94-5.0636-5.1299s0.15413-0.80416 0.96634-1.3564c0.81288-0.55219 1.485-0.20975 1.485-0.20975l3.1798 6.2966z"/><path d="m85.138 461.75c-0.55688-0.10588-1.095 0.25934-1.2009 0.8169-0.10588 0.55688 0.25934 1.0943 0.8169 1.2009 0.55688 0.10588 1.0943-0.26001 1.2009-0.81689 0.10588-0.55689-0.26001-1.095-0.8169-1.2009m1.3503 1.3028c-0.16217 0.85174-0.98443 1.4106-1.8362 1.2485-0.85175-0.16217-1.4113-0.98443-1.2491-1.8362 0.16217-0.85242 0.9851-1.4113 1.8368-1.2491 0.85175 0.16218 1.4113 0.98443 1.2485 1.8368"/><path d="m80.657 456.63c-4.2239 2.8722-6.8367 6.3938-6.8367 6.3938-1.3966-2.054 0.8953-6.0473 5.1192-8.9195s8.7801-3.5363 10.177-1.4823c0 0-4.2353 1.1359-8.4591 4.0081"/></g><path d="m65.738 448.65-14.355-21.11s14.369 19.196 17.921 21.863c3.289 2.4688 5.7451 2.9854 5.7451 2.9854s-4.0912 3.9377-9.3109-3.7387" fill="#eee6d8"/></g></g></svg>