<svg version="1.1" viewBox="0 0 1245 132.46" xml:space="preserve" xmlns="http://www.w3.org/2000/svg" xmlns:cc="http://creativecommons.org/ns#" xmlns:dc="http://purl.org/dc/elements/1.1/" xmlns:rdf="http://www.w3.org/1999/02/22-rdf-syntax-ns#"><metadata><rdf:RDF><cc:Work rdf:about=""><dc:format>image/svg+xml</dc:format><dc:type rdf:resource="http://purl.org/dc/dcmitype/StillImage"/></cc:Work></rdf:RDF></metadata><g transform="matrix(1.25,0,0,-1.25,-2333.6,1044.1)" fill="#313131"><text transform="scale(-1)" x="-3829.1804" y="-149.98003" font-family="'Avenir LT Std'" font-size="28px" letter-spacing="0px" opacity=".666" stroke-width="1px" word-spacing="0px" style="line-height:125%" xml:space="preserve"><tspan x="-3829.1804" y="-149.98003" fill="#313131"/></text><text transform="scale(-1)" x="-3858.6885" y="-174.02371" font-family="'Roboto Condensed'" font-size="28px" font-stretch="condensed" font-style="italic" font-weight="300" letter-spacing="0px" opacity=".666" stroke-width="1px" word-spacing="0px" style="line-height:125%" xml:space="preserve"><tspan x="-3858.6885" y="-174.02371" fill="#313131"/></text><path d="m2160.8 750.13 2.8645-4.0133 4.8094 1.4083-3.0408-3.8879 2.8633-4.0121-4.7426 1.6093-3.0409-3.888 0.1107 4.8836-4.7425 1.6093 4.8094 1.4072z" opacity=".666"/><path d="m2481.5 752.69 1.2611-8.5783 8.8254-1.2273-8.8254-1.2261-1.2611-8.5796-1.2612 8.5796-8.8254 1.2261 8.8254 1.2273z" opacity=".666"/><path d="m2082.3 755.63 2.3732 3.3264 3.9873-1.1673-2.5204 3.2225 2.3732 3.3255-3.9308-1.3339-2.5204 3.2205 0.092-4.0458-3.9319-1.3349 3.9873-1.1663z" opacity=".666"/><path d="m1955.1 754.23-1.8407 5.5577 4.8663 3.4177-6.0047 0.016-1.8407 5.5562-1.8697-5.5463-6.0062 0.014 4.8503-3.4432-1.8683-5.5463 4.8634 3.4191 4.8503-3.4445z" opacity=".666"/><path d="m2160.5 814.23c0 0.7161-0.5972 1.2971-1.3343 1.2971-0.736 0-1.3337-0.581-1.3337-1.2971 0-0.716 0.5977-1.2965 1.3337-1.2965 0.7371 0 1.3343 0.5805 1.3343 1.2965" opacity=".666"/><path d="m2007.9 770.53c0 1.3478-1.1229 2.4413-2.5091 2.4413-1.3873 0-2.5102-1.0935-2.5102-2.4413 0-1.3476 1.1229-2.4402 2.5102-2.4402 1.3862 0 2.5091 1.0926 2.5091 2.4402" opacity=".666"/><path d="m2821.5 770.44c0 1.3478-1.1229 2.4413-2.5091 2.4413-1.3873 0-2.5102-1.0935-2.5102-2.4413 0-1.3476 1.1229-2.4402 2.5102-2.4402 1.3862 0 2.5091 1.0926 2.5091 2.4402" opacity=".666"/><path d="m2358 752.89c0 1.3714-1.1424 2.4839-2.554 2.4839-1.4107 0-2.5541-1.1125-2.5541-2.4839 0-1.3705 1.1434-2.483 2.5541-2.483 1.4116 0 2.554 1.1125 2.554 2.483" opacity=".666"/><path d="m2645.7 829.69c0 1.2129-1.0104 2.1968-2.2588 2.1968-1.2477 0-2.2589-0.98388-2.2589-2.1968 0-1.2121 1.0112-2.196 2.2589-2.196 1.2484 0 2.2588 0.98388 2.2588 2.196" opacity=".666"/><path d="m2745.9 835.25 1.319-8.9715 9.23-1.2836-9.23-1.2823-1.319-8.9715-1.3189 8.9715-9.23 1.2822 9.23 1.2837z" opacity=".666"/><path d="m1889.5 756.48 1.7489-11.896 12.239-1.702-12.239-1.7003-1.7489-11.898-1.749 11.898-12.239 1.7003 12.239 1.702z" opacity=".666"/><path d="m2557 813.46 5.728-4.1752 5.7281 4.1752-4.2949-5.5685 4.2949-5.5685-5.7281 4.1763-5.728-4.1763 4.2949 5.5685z" opacity=".666"/><path d="m2257.4 737.96c0 1.8228 1.5202 3.3006 3.3953 3.3006 1.875 0 3.3952-1.4778 3.3952-3.3006s-1.5202-3.3006-3.3952-3.3006c-1.8751 0-3.3953 1.4778-3.3953 3.3006" opacity=".666"/></g></svg>
