<?xml version="1.0" encoding="UTF-8" standalone="no"?>
<svg
   version="1.1"
   viewBox="0 0 266 256"
   xml:space="preserve"
   id="svg15"
   sodipodi:docname="footer-elements-stars.svg"
   inkscape:version="1.3.1 (91b66b0, 2023-11-16)"
   width="266"
   height="256"
   xmlns:inkscape="http://www.inkscape.org/namespaces/inkscape"
   xmlns:sodipodi="http://sodipodi.sourceforge.net/DTD/sodipodi-0.dtd"
   xmlns="http://www.w3.org/2000/svg"
   xmlns:svg="http://www.w3.org/2000/svg"
   xmlns:rdf="http://www.w3.org/1999/02/22-rdf-syntax-ns#"
   xmlns:cc="http://creativecommons.org/ns#"
   xmlns:dc="http://purl.org/dc/elements/1.1/"><defs
     id="defs15" /><sodipodi:namedview
     id="namedview15"
     pagecolor="#ffffff"
     bordercolor="#666666"
     borderopacity="1.0"
     inkscape:showpageshadow="2"
     inkscape:pageopacity="0.0"
     inkscape:pagecheckerboard="0"
     inkscape:deskcolor="#d1d1d1"
     inkscape:zoom="1.8430757"
     inkscape:cx="139.71211"
     inkscape:cy="141.61111"
     inkscape:window-width="1440"
     inkscape:window-height="847"
     inkscape:window-x="0"
     inkscape:window-y="25"
     inkscape:window-maximized="1"
     inkscape:current-layer="g15" /><metadata
     id="metadata1"><rdf:RDF><cc:Work
         rdf:about=""><dc:format>image/svg+xml</dc:format><dc:type
           rdf:resource="http://purl.org/dc/dcmitype/StillImage" /></cc:Work></rdf:RDF></metadata><g
     transform="matrix(1.25,0,0,-1.25,-3226.8541,1004.2854)"
     fill="#313131"
     id="g15"><text
       transform="scale(-1)"
       x="-3848.3816"
       y="-41.886509"
       font-family="'Avenir LT Std'"
       font-size="28px"
       letter-spacing="0px"
       opacity="0.666"
       stroke-width="1px"
       word-spacing="0px"
       style="line-height:125%"
       xml:space="preserve"
       id="text1"><tspan
         x="-3848.3816"
         y="-41.886509"
         fill="#313131"
         id="tspan1" /></text><text
       transform="scale(-1)"
       x="-3877.8896"
       y="-65.930077"
       font-family="'Roboto Condensed'"
       font-size="28px"
       font-stretch="condensed"
       font-style="italic"
       font-weight="300"
       letter-spacing="0px"
       opacity="0.666"
       stroke-width="1px"
       word-spacing="0px"
       style="line-height:125%"
       xml:space="preserve"
       id="text2"><tspan
         x="-3877.8896"
         y="-65.930077"
         fill="#313131"
         id="tspan2" /></text><path
       d="m 2602.0301,648.16706 c 0,1.1938 -1.0177,2.1623 -2.2739,2.1623 -1.2543,0 -2.2729,-0.96854 -2.2729,-2.1623 0,-1.1936 1.0186,-2.1613 2.2729,-2.1613 1.2562,0 2.2739,0.96771 2.2739,2.1613"
       opacity="0.666"
       stroke-width="1.6855"
       id="path7" /><path
       d="m 2720.4301,719.66599 c 0,1.1938 -1.0177,2.1623 -2.2739,2.1623 -1.2543,0 -2.2729,-0.96854 -2.2729,-2.1623 0,-1.1936 1.0186,-2.1613 2.2729,-2.1613 1.2562,0 2.2739,0.96771 2.2739,2.1613"
       opacity="0.666"
       stroke-width="1.6855"
       id="path7-7-0" /><path
       d="m 2658.0301,719.73411 c 0,1.1938 -1.0177,2.1623 -2.2739,2.1623 -1.2543,0 -2.2729,-0.96854 -2.2729,-2.1623 0,-1.1936 1.0186,-2.1613 2.2729,-2.1613 1.2562,0 2.2739,0.96771 2.2739,2.1613"
       opacity="0.666"
       stroke-width="1.6855"
       id="path7-7-4" /><path
       d="m 2617.4108,611.11606 c 0,1.1938 -1.0177,2.1623 -2.2739,2.1623 -1.2543,0 -2.2729,-0.96854 -2.2729,-2.1623 0,-1.1936 1.0186,-2.1613 2.2729,-2.1613 1.2562,0 2.2739,0.96771 2.2739,2.1613"
       opacity="0.666"
       stroke-width="1.6855"
       id="path7-1" /><path
       d="m 2778.2336,647.93164 c 0,1.3478 -1.1229,2.4413 -2.5091,2.4413 -1.3873,0 -2.5102,-1.0935 -2.5102,-2.4413 0,-1.3476 1.1229,-2.4402 2.5102,-2.4402 1.3862,0 2.5091,1.0926 2.5091,2.4402"
       opacity="0.666"
       id="path9" /><path
       d="m 2758.6833,611.33924 c 0,1.3478 -1.1229,2.4413 -2.5091,2.4413 -1.3873,0 -2.5102,-1.0935 -2.5102,-2.4413 0,-1.3476 1.1229,-2.4402 2.5102,-2.4402 1.3862,0 2.5091,1.0926 2.5091,2.4402"
       opacity="0.666"
       id="path9-2" /><path
       d="m 2761.5467,697.80295 1.1145,-7.3023 7.7991,-1.0448 -7.7991,-1.0437 -1.1145,-7.3023 -1.1144,7.3023 -7.7991,1.0436 7.7991,1.0448 z"
       opacity="0.666"
       stroke-width="0.82931"
       id="path12" /><path
       d="m 2609.7047,696.14892 5.728,-4.1752 5.7281,4.1752 -4.2949,-5.5685 4.2949,-5.5685 -5.7281,4.1763 -5.728,-4.1763 4.2949,5.5685 z"
       opacity="0.666"
       id="path14" /></g></svg>
