<svg version="1.1" viewBox="0 0 1245 132.46" xml:space="preserve" xmlns="http://www.w3.org/2000/svg" xmlns:cc="http://creativecommons.org/ns#" xmlns:dc="http://purl.org/dc/elements/1.1/" xmlns:rdf="http://www.w3.org/1999/02/22-rdf-syntax-ns#"><metadata><rdf:RDF><cc:Work rdf:about=""><dc:format>image/svg+xml</dc:format><dc:type rdf:resource="http://purl.org/dc/dcmitype/StillImage"/></cc:Work></rdf:RDF></metadata><g transform="matrix(1.25,0,0,-1.25,-2333.6,1044.1)" fill="#313131"><text transform="scale(-1)" x="-3829.1804" y="-149.98003" font-family="'Avenir LT Std'" font-size="28px" letter-spacing="0px" opacity=".666" stroke-width="1px" word-spacing="0px" style="line-height:125%" xml:space="preserve"><tspan x="-3829.1804" y="-149.98003" fill="#313131"/></text><text transform="scale(-1)" x="-3858.6885" y="-174.02371" font-family="'Roboto Condensed'" font-size="28px" font-stretch="condensed" font-style="italic" font-weight="300" letter-spacing="0px" opacity=".666" stroke-width="1px" word-spacing="0px" style="line-height:125%" xml:space="preserve"><tspan x="-3858.6885" y="-174.02371" fill="#313131"/></text><path d="m2160.8 750.13 2.8645-4.0133 4.8094 1.4083-3.0408-3.8879 2.8633-4.0121-4.7426 1.6093-3.0409-3.888 0.1107 4.8836-4.7425 1.6093 4.8094 1.4072z" opacity=".666"/><path d="m2461.8 743.23 0.9267-5.9569 6.4859-0.85226-6.4859-0.85142-0.9267-5.9578-0.9268 5.9578-6.4859 0.85142 6.4859 0.85226z" opacity=".666" stroke-width=".71437"/><path d="m2082.3 755.63 2.3732 3.3264 3.9873-1.1673-2.5204 3.2225 2.3732 3.3255-3.9308-1.3339-2.5204 3.2205 0.092-4.0458-3.9319-1.3349 3.9873-1.1663z" opacity=".666"/><path d="m2321.4 755.09 2.3732 3.3264 3.9873-1.1673-2.5204 3.2225 2.3732 3.3255-3.9308-1.3339-2.5204 3.2205 0.092-4.0458-3.9319-1.3349 3.9873-1.1663z" opacity=".666"/><path d="m1954.5 755.15-1.6247 4.8529 4.2953 2.9843-5.3001 0.014-1.6247 4.8516-1.6503-4.843-5.3014 0.0122 4.2811-3.0066-1.649-4.843 4.2927 2.9855 4.2811-3.0077z" opacity=".666" stroke-width=".87791"/><path d="m2515.5 772.24c0 1.1938-1.0177 2.1623-2.2739 2.1623-1.2543 0-2.2729-0.96854-2.2729-2.1623 0-1.1936 1.0186-2.1613 2.2729-2.1613 1.2562 0 2.2739 0.96771 2.2739 2.1613" opacity=".666" stroke-width="1.6855"/><path d="m2016.6 772.13c0 1.3478-1.1229 2.4413-2.5091 2.4413-1.3873 0-2.5102-1.0935-2.5102-2.4413 0-1.3476 1.1229-2.4402 2.5102-2.4402 1.3862 0 2.5091 1.0926 2.5091 2.4402" opacity=".666"/><path d="m2821.5 770.44c0 1.3478-1.1229 2.4413-2.5091 2.4413-1.3873 0-2.5102-1.0935-2.5102-2.4413 0-1.3476 1.1229-2.4402 2.5102-2.4402 1.3862 0 2.5091 1.0926 2.5091 2.4402" opacity=".666"/><path d="m2391.6 756.94c0 1.3714-1.1424 2.4839-2.554 2.4839-1.4107 0-2.5541-1.1125-2.5541-2.4839 0-1.3705 1.1434-2.483 2.5541-2.483 1.4116 0 2.554 1.1125 2.554 2.483" opacity=".666"/><path d="m2646.5 832.83c0 1.2129-1.0104 2.1968-2.2588 2.1968-1.2477 0-2.2589-0.98388-2.2589-2.1968 0-1.2121 1.0112-2.196 2.2589-2.196 1.2484 0 2.2588 0.98388 2.2588 2.196" opacity=".666"/><path d="m2744.3 823.16 1.1145-7.3023 7.7991-1.0448-7.7991-1.0437-1.1145-7.3023-1.1144 7.3023-7.7991 1.0436 7.7991 1.0448z" opacity=".666" stroke-width=".82931"/><path d="m1889.5 750.97 1.0589-7.0777 7.4108-1.0126-7.4108-1.0116-1.0589-7.0789-1.059 7.0789-7.4108 1.0116 7.4108 1.0126z" opacity=".666" stroke-width=".60021"/><path d="m2561.8 813.7 5.728-4.1752 5.7281 4.1752-4.2949-5.5685 4.2949-5.5685-5.7281 4.1763-5.728-4.1763 4.2949 5.5685z" opacity=".666"/><path d="m2247.8 737.96c0 1.8228 1.5202 3.3006 3.3953 3.3006 1.875 0 3.3952-1.4778 3.3952-3.3006s-1.5202-3.3006-3.3952-3.3006c-1.8751 0-3.3953 1.4778-3.3953 3.3006" opacity=".666"/></g></svg>