<svg width="31.171mm" height="30.722mm" version="1.1" viewBox="-24 0 31.171 30.722" xmlns="http://www.w3.org/2000/svg"><g transform="translate(-117.66 -27.517)"><g transform="matrix(.25111 0 0 .25111 17.089 29.212)" fill="#fff"><g transform="matrix(1.5108,0,0,1.5108,81.572,-106.35)"><path transform="translate(2.0846e-6)" d="m161.65 120.11c-4.63-0.0192-13.808-11.999-13.802-13.549 4e-3 -0.96326 9.2096 5.9904 13.835 6.0096 4.641 0.0193 13.968-6.8588 13.963-5.8943-7e-3 1.5486-9.3603 13.453-13.996 13.434z" fill="#58c446"/><g fill="#6892cf"><path d="m216.21 92.72c4.6299 0.01919 13.808 11.999 13.802 13.549-4e-3 0.96326-9.2096-5.9904-13.835-6.0096-4.6409-0.0193-13.968 6.8588-13.963 5.8943 7e-3 -1.5486 9.3603-13.453 13.996-13.434z"/><path d="m209.88 84.216c4.3573-1.5655 17.08 6.5526 17.603 8.0113 0.32553 0.90657-10.703-2.4793-15.056-0.91543-4.3676 1.5692-10.779 11.222-11.105 10.315-0.52329-1.4576 4.1947-15.843 8.5577-17.41z"/><path d="m167.98 128.62c-4.3573 1.5655-17.08-6.5526-17.603-8.0113-0.32551-0.90658 10.703 2.4793 15.056 0.91543 4.3676-1.5692 10.779-11.222 11.105-10.315 0.5233 1.4575-4.1946 15.843-8.5577 17.41z"/><path d="m201.02 78.389c3.5591-2.9614 18.291 0.31587 19.282 1.5075 0.61599 0.74059-10.905 1.3309-14.461 4.2891-3.5675 2.9684-6.2911 14.232-6.9078 13.491-0.99024-1.1907-1.4769-16.322 2.0869-19.287z"/><path d="m176.83 134.44c-3.5591 2.9614-18.291-0.3159-19.282-1.5074-0.61596-0.74068 10.905-1.3309 14.461-4.2892 3.5675-2.9684 6.2911-14.232 6.9078-13.491 0.99022 1.1907 1.4769 16.322-2.0869 19.287z"/><path d="m190.71 75.943c2.3316-4.0001 17.296-5.959 18.634-5.1782 0.83212 0.48528-9.7926 4.9805-12.122 8.9764-2.3371 4.0095-1.0439 15.526-1.8771 15.04-1.3378-0.78018-6.9703-14.833-4.6356-18.838z"/><path d="m187.15 136.89c-2.3316 4.0001-17.296 5.959-18.634 5.1782-0.8321-0.48519 9.7926-4.9804 12.122-8.9764 2.3371-4.0095 1.044-15.526 1.8771-15.04 1.3378 0.78018 6.9703 14.833 4.6356 18.838z"/><path d="m180.18 77.172c0.82289-4.5563 14.215-11.515 15.74-11.239 0.94789 0.1714-7.4986 8.0294-8.3206 12.581-0.82483 4.5671 4.3291 14.946 3.38 14.775-1.5239-0.2756-11.623-11.554-10.799-16.116z"/><path d="m197.68 135.66c-0.82289 4.5563-14.215 11.515-15.74 11.239-0.94791-0.17137 7.4986-8.0294 8.3206-12.581 0.82485-4.5671-4.3291-14.946-3.38-14.775 1.5239 0.27559 11.623 11.554 10.799 16.116z"/><path d="m170.7 81.929c-0.7851-4.5629 9.4189-15.682 10.946-15.945 0.94934-0.16314-4.3002 10.11-3.5159 14.668 0.78693 4.5737 9.18 12.564 8.2294 12.728-1.5263 0.26223-14.874-6.882-15.66-11.451z"/><path d="m207.15 130.9c0.78509 4.5629-9.4189 15.682-10.946 15.945-0.94935 0.16325 4.3002-10.11 3.5159-14.668-0.78693-4.5738-9.18-12.564-8.2294-12.728 1.5263-0.26225 14.874 6.8821 15.66 11.451z"/><path d="m163.43 89.639c-2.2984-4.0193 3.4872-17.958 4.8328-18.727 0.8363-0.478-0.58308 10.971 1.7129 14.986 2.3038 4.0288 12.924 8.6669 12.086 9.1455-1.3445 0.76846-16.331-1.3798-18.632-5.4044z"/><path d="m214.43 123.19c2.2983 4.0192-3.4872 17.958-4.8328 18.727-0.83631 0.47805 0.58308-10.971-1.7129-14.986-2.3038-4.0288-12.924-8.6669-12.086-9.1456 1.3445-0.76842 16.331 1.3799 18.632 5.4045z"/><path d="m159.23 99.372c-3.5344-2.9908-2.8651-18.068-1.8636-19.251 0.62237-0.73522 3.2043 10.509 6.735 13.496 3.5428 2.9979 15.109 3.7241 14.485 4.4602-1.0006 1.1819-15.818 4.2888-19.357 1.294z"/><path d="m218.63 113.46c3.5344 2.9908 2.8651 18.068 1.8637 19.251-0.62235 0.73524-3.2044-10.509-6.7351-13.496-3.5428-2.9979-15.109-3.7241-14.485-4.4603 1.0006-1.1819 15.818-4.2888 19.357-1.294z"/><path d="m158.61 109.96c-4.3442-1.6016-8.8718-15.998-8.3354-17.452 0.33341-0.90372 6.6053 8.779 10.945 10.379 4.3544 1.6054 15.471-1.6679 15.137-0.76305-0.53602 1.4529-13.397 9.4401-17.747 7.8364z"/><path d="m219.25 102.88c4.3442 1.6016 8.8718 15.998 8.3353 17.452-0.33337 0.90375-6.6053-8.779-10.945-10.379-4.3545-1.6054-15.471 1.6679-15.137 0.76303 0.53603-1.4529 13.397-9.4401 17.747-7.8364z"/></g></g></g></g></svg>