<svg style="background:none" preserveAspectRatio="xMidYMid" version="1.1" viewBox="0 0 720 260" xmlns="http://www.w3.org/2000/svg"><style><![CDATA[.B{fill:rgba(255, 255, 255, 0.6140120967741935)}.C{fill:#fff}]]></style><defs><linearGradient id="A" x2="0" y2="260" gradientUnits="userSpaceOnUse"><stop stop-color="rgba(255, 255, 255, 0)" offset="0"/></linearGradient></defs><path d="M0 0h720v260H0z" fill="url(#A)"/><path class="B" d="M508.606 245.388a1.76 1.76 0 0 0-.237.415c-.043.108-.124.272-.018.367.093.085.27.028.378.003a1.6 1.6 0 0 0 .208-.064c.068-.026.161-.096.233-.098s.107.092.145.139c.055.069.115.133.18.192.083.076.221.221.345.205.148-.019.159-.193.174-.31a1.9 1.9 0 0 0-.008-.474c-.011-.087.017-.106.098-.132a1.73 1.73 0 0 0 .246-.102c.111-.056.311-.148.36-.269.062-.151-.097-.227-.207-.281-.151-.074-.31-.119-.474-.151-.098-.019-.097-.059-.099-.152a1.81 1.81 0 0 0-.023-.264c-.019-.118-.047-.341-.151-.417-.129-.095-.248.04-.333.128-.119.125-.198.265-.288.41-.055.089-.122.043-.207.019s-.165-.041-.249-.052c-.122-.016-.354-.061-.444.049-.101.123.037.312.105.42a1.68 1.68 0 0 0 .156.21c.042.049.167.132.109.208zM47.057 61.592a1.4 1.4 0 0 0 .361.129c.091.019.232.06.292-.037.054-.085-.015-.217-.05-.299-.023-.054-.049-.105-.079-.155s-.098-.114-.109-.17.058-.098.089-.134a1.43 1.43 0 0 0 .127-.169c.049-.076.143-.205.114-.3-.036-.114-.175-.099-.268-.094a1.52 1.52 0 0 0-.373.072c-.067.021-.086.001-.118-.059s-.072-.123-.114-.18c-.059-.079-.16-.225-.262-.247-.127-.028-.166.108-.193.202a1.49 1.49 0 0 0-.053.395c-.001.08-.033.085-.107.099a1.45 1.45 0 0 0-.205.055c-.091.032-.263.084-.308.177-.057.115.066.191.147.245.115.076.236.119.363.17.078.031.051.09.044.161a1.39 1.39 0 0 0-.007.204c.004.099.001.288.1.344.111.063.241-.073.316-.141a1.38 1.38 0 0 0 .144-.152c.033-.04.081-.15.149-.115zM60.8 243.396c-.112.091-.213.196-.297.315-.061.086-.166.212-.094.319.064.094.231.082.332.083a1.45 1.45 0 0 0 .196-.011c.065-.008.162-.05.225-.036s.075.104.098.153a1.62 1.62 0 0 0 .117.207c.056.084.148.241.259.254.134.015.181-.136.218-.235a1.71 1.71 0 0 0 .094-.418c.009-.079.037-.089.114-.095s.16-.019.238-.037c.109-.026.304-.064.374-.16.087-.119-.037-.22-.122-.291a1.68 1.68 0 0 0-.384-.233c-.082-.038-.073-.073-.054-.155a1.53 1.53 0 0 0 .036-.237c.008-.108.032-.309-.044-.399-.093-.111-.227-.018-.32.041-.131.084-.23.191-.34.299-.068.066-.116.012-.186-.027a1.64 1.64 0 0 0-.208-.099c-.104-.04-.298-.129-.401-.052-.115.087-.034.282.003.391a1.43 1.43 0 0 0 .093.217c.026.052.119.152.052.206z"/><path class="B" d="M596.263 209.433c-.04.142-.061.289-.061.437 0 .107-.013.275.11.321.109.041.241-.068.325-.127.055-.038.107-.08.157-.125s.105-.137.166-.163.124.043.171.07c.071.04.144.074.22.103.097.037.265.114.365.058.121-.067.07-.22.043-.325a1.75 1.75 0 0 0-.168-.403c-.039-.071-.022-.096.039-.147a1.72 1.72 0 0 0 .176-.171c.076-.086.216-.233.217-.354.002-.15-.161-.161-.273-.17-.154-.012-.306.003-.457.033-.091.017-.104-.018-.136-.097a1.67 1.67 0 0 0-.11-.218c-.057-.095-.156-.276-.272-.306-.143-.037-.199.119-.241.223-.059.147-.079.294-.107.449-.017.095-.09.079-.171.087a1.6 1.6 0 0 0-.231.04c-.11.028-.324.069-.364.193-.045.14.138.254.233.324.065.048.134.089.205.126.052.027.188.056.164.141z"/><path class="C" d="M565.303 255.159a.85.85 0 0 0-.021-.23c-.013-.054-.026-.141-.095-.15-.06-.008-.114.064-.15.104a.77.77 0 0 0-.065.083c-.02.029-.037.083-.065.103s-.068-.007-.096-.015a.86.86 0 0 0-.124-.026c-.054-.007-.149-.026-.193.014-.053.049-.009.12.017.17.036.068.082.128.134.185.028.031.023.046-.002.079a.9.9 0 0 0-.069.108c-.028.053-.082.144-.068.206.017.077.101.063.159.054.08-.013.155-.039.229-.072.044-.02.055-.004.081.033s.052.067.082.098c.04.041.113.122.175.123.077.002.087-.084.096-.143.012-.082.005-.159 0-.241-.003-.05.036-.051.076-.065s.076-.029.113-.048c.053-.027.157-.074.162-.142.006-.077-.101-.113-.158-.136a.81.81 0 0 0-.12-.04c-.03-.008-.102-.006-.101-.052z"/><path class="B" d="M695.018 9.855a.75.75 0 0 0 .127.159c.036.034.088.092.142.065.048-.024.054-.102.061-.149a.68.68 0 0 0 .008-.092c0-.031-.013-.079-.002-.107s.054-.028.078-.035a.76.76 0 0 0 .104-.041c.043-.021.122-.053.136-.104.016-.062-.051-.093-.095-.118a.81.81 0 0 0-.189-.072c-.036-.009-.039-.023-.037-.06a.85.85 0 0 0-.001-.113c-.005-.053-.01-.146-.05-.185-.05-.048-.105.003-.144.037a.79.79 0 0 0-.134.164c-.023.036-.039.029-.076.015a.77.77 0 0 0-.108-.032c-.05-.011-.142-.035-.189-.006-.058.036-.023.105-.002.152.03.067.073.12.117.178.026.036-.002.055-.025.085a.74.74 0 0 0-.06.09c-.026.046-.08.131-.051.183.033.059.129.035.183.025a.69.69 0 0 0 .108-.029c.026-.009.079-.045.099-.01zM510.542 79.831a.81.81 0 0 0 .054.214c.02.05.046.13.111.128.058-.002.099-.077.126-.12a.74.74 0 0 0 .049-.087c.014-.03.023-.083.046-.107s.065-.004.092 0a.82.82 0 0 0 .121.007c.052-.001.144.003.18-.042.043-.054-.009-.115-.041-.158a.87.87 0 0 0-.154-.155c-.031-.026-.028-.04-.01-.075a.86.86 0 0 0 .049-.112c.019-.054.056-.148.034-.204-.027-.07-.105-.044-.158-.027a.85.85 0 0 0-.205.101c-.039.025-.051.011-.081-.019s-.059-.056-.092-.08c-.044-.033-.124-.098-.183-.09-.073.01-.07.092-.07.149 0 .079.019.151.035.228.01.047-.027.053-.063.073a.8.8 0 0 0-.099.062c-.046.034-.137.093-.132.158.006.073.112.092.169.106a.77.77 0 0 0 .119.02c.029.003.098-.009.103.034zM596.397 2.21a.75.75 0 0 0 .039-.204c.002-.05.013-.129-.044-.153-.05-.022-.115.026-.156.052a.83.83 0 0 0-.077.055c-.025.02-.053.062-.082.073s-.057-.023-.079-.037c-.032-.02-.066-.038-.101-.054-.045-.02-.122-.06-.17-.036-.058.029-.038.102-.028.152.014.068.039.131.07.194.017.034.008.046-.022.068a.81.81 0 0 0-.087.076c-.038.038-.107.105-.11.161-.004.071.072.08.124.086.072.009.144.005.216-.005.043-.006.048.011.062.049s.028.071.047.105c.025.046.067.134.121.15.066.021.096-.051.119-.099.031-.068.044-.137.06-.209.01-.044.044-.035.082-.037s.073-.006.11-.014c.053-.01.154-.025.176-.083.024-.065-.059-.123-.102-.158a.73.73 0 0 0-.094-.064c-.024-.014-.087-.031-.074-.07zM316.15 189.493a.95.95 0 0 0-.133-.22c-.04-.048-.095-.129-.168-.104-.064.022-.084.119-.1.177a.86.86 0 0 0-.025.114c-.006.039.003.101-.015.135s-.071.026-.103.032a.96.96 0 0 0-.137.034c-.057.019-.161.046-.186.108-.03.075.049.125.1.162a1.02 1.02 0 0 0 .224.12c.044.018.045.036.037.08a1 1 0 0 0-.017.142c-.003.066-.012.184.032.239.054.068.132.014.186-.024a.99.99 0 0 0 .194-.183c.035-.041.053-.03.097-.006s.085.042.13.058c.061.022.172.067.235.038.078-.036.046-.127.027-.189-.027-.088-.073-.162-.117-.242-.027-.049.011-.068.045-.102a.93.93 0 0 0 .089-.103c.04-.053.121-.15.093-.221-.031-.08-.156-.064-.224-.06a.9.9 0 0 0-.139.019c-.034.007-.106.044-.126-.003zm211.798-59.225a.73.73 0 0 0-.144-.135c-.039-.028-.097-.076-.146-.043-.043.029-.038.106-.038.151a.66.66 0 0 0 .005.09c.004.03.023.074.017.103s-.048.034-.07.045a.74.74 0 0 0-.095.053c-.039.026-.11.067-.116.118-.007.061.062.083.107.1a.78.78 0 0 0 .191.043c.036.004.041.017.044.052a.77.77 0 0 0 .017.109c.012.05.029.139.073.171.054.04.101-.017.133-.056.044-.053.078-.113.106-.175.017-.038.033-.033.071-.025s.072.014.108.016c.049.004.141.014.182-.02.051-.042.008-.104-.019-.146-.038-.06-.087-.105-.136-.155-.03-.031-.006-.053.012-.085s.032-.062.045-.095c.018-.047.059-.136.024-.183-.04-.053-.129-.015-.179.001a.69.69 0 0 0-.099.042c-.024.012-.069.054-.094.023z"/><path class="B" d="M411.731 144.894c-.035-.053-.076-.101-.123-.142-.034-.03-.084-.081-.134-.055-.044.024-.046.096-.05.14a.63.63 0 0 0-.004.085c.001.029.015.072.006.099s-.048.028-.07.036a.7.7 0 0 0-.095.041c-.039.021-.111.053-.121.101-.012.057.051.084.092.105.056.028.115.046.176.059.034.007.037.02.036.053s.001.07.005.105c.006.048.014.134.053.169.048.043.097-.006.131-.04a.73.73 0 0 0 .118-.156c.02-.034.035-.028.069-.017a.71.71 0 0 0 .101.026c.046.008.132.027.174-.002.052-.035.018-.097-.004-.14-.031-.06-.072-.108-.114-.16-.026-.032 0-.051.02-.079a.68.68 0 0 0 .052-.085c.022-.043.069-.123.04-.171-.032-.054-.12-.027-.169-.016a.66.66 0 0 0-.098.03c-.023.009-.071.045-.091.013z"/><path class="C" d="M703.696 54.289a1 1 0 0 0 .167-.205c.033-.055.092-.137.043-.198-.043-.055-.145-.04-.206-.036a.79.79 0 0 0-.119.016c-.039.008-.097.038-.136.032s-.05-.06-.066-.089a1.1 1.1 0 0 0-.08-.121c-.038-.049-.101-.141-.169-.143-.083-.003-.104.091-.123.153a1.05 1.05 0 0 0-.039.259c-.002.049-.019.056-.065.063a1.03 1.03 0 0 0-.144.033c-.065.02-.183.052-.221.114-.048.076.032.133.087.172a1.03 1.03 0 0 0 .245.125c.052.019.048.041.04.092a1 1 0 0 0-.011.146c0 .066-.006.19.044.241.062.063.139.001.193-.039.076-.057.132-.126.194-.197.038-.043.07-.012.115.008a.96.96 0 0 0 .131.051c.065.02.188.065.247.014.066-.058.008-.173-.019-.238-.019-.045-.041-.087-.066-.129-.018-.03-.079-.087-.04-.123zm-180.433 95.817a.96.96 0 0 0-.241-.097c-.061-.015-.155-.047-.199.017-.039.057.004.148.026.204a.87.87 0 0 0 .049.108c.019.035.064.08.07.118s-.042.065-.064.088a.97.97 0 0 0-.091.111c-.035.05-.103.136-.085.201.021.079.116.072.18.071a1.05 1.05 0 0 0 .255-.039c.046-.012.058.001.078.043s.046.086.073.125c.038.056.102.157.171.174.086.022.115-.069.136-.132a1.01 1.01 0 0 0 .047-.266c.003-.054.025-.057.075-.064a.93.93 0 0 0 .141-.032c.062-.019.18-.05.214-.112.042-.076-.04-.131-.093-.17-.076-.055-.157-.087-.242-.125-.052-.023-.032-.063-.026-.11a1.08 1.08 0 0 0 .01-.138c0-.067.007-.195-.059-.236-.074-.046-.165.043-.219.087a.91.91 0 0 0-.102.1c-.023.026-.059.1-.104.074zm-412.074 60.187c-.065-.014-.132-.02-.199-.016-.048.003-.125.001-.142.058-.016.05.037.107.066.144a.67.67 0 0 0 .061.068c.022.021.065.044.078.071s-.016.057-.027.079a.75.75 0 0 0-.041.102c-.014.045-.045.123-.017.167.033.053.101.026.148.011.064-.02.121-.051.178-.087.031-.02.043-.012.067.014a.78.78 0 0 0 .082.075c.041.032.111.092.166.089.068-.003.069-.077.07-.128.001-.07-.009-.138-.027-.206-.01-.041.005-.047.04-.064a.75.75 0 0 0 .096-.055c.041-.028.121-.078.131-.131.013-.066-.059-.087-.107-.104-.068-.023-.135-.028-.206-.037-.044-.005-.038-.039-.044-.075s-.014-.07-.024-.103c-.015-.049-.04-.145-.097-.16-.065-.017-.112.069-.14.114a.7.7 0 0 0-.052.096c-.011.024-.021.087-.06.078z"/><path class="B" d="M683.423 218.965c.05-.066.091-.137.121-.214.022-.056.063-.14.008-.189-.048-.043-.139-.014-.195-.001-.036.009-.072.02-.107.033s-.083.05-.12.051-.055-.047-.075-.071a.92.92 0 0 0-.093-.099c-.043-.039-.114-.113-.178-.105-.076.01-.081.1-.089.16-.01.082-.005.162.005.244.006.045-.008.054-.05.068a.96.96 0 0 0-.127.053c-.057.029-.16.077-.185.139-.032.078.05.117.107.144a.96.96 0 0 0 .244.077c.051.01.05.03.051.078a.93.93 0 0 0 .013.136c.01.061.025.175.079.214.066.048.128-.021.171-.066.061-.064.101-.137.147-.211.028-.046.063-.023.107-.01a.89.89 0 0 0 .128.026c.063.008.182.031.228-.026.052-.064-.02-.16-.055-.216-.024-.038-.051-.074-.081-.108-.022-.025-.086-.068-.057-.107zm-237.757-34.399a.74.74 0 0 0-.105-.17c-.031-.037-.075-.1-.131-.08-.05.017-.064.094-.077.138a.67.67 0 0 0-.018.089c-.004.03.003.079-.011.105s-.055.021-.08.025a.8.8 0 0 0-.107.028c-.044.015-.125.037-.144.086-.023.058.039.097.079.126.054.039.113.067.176.092.034.013.035.027.029.062a.78.78 0 0 0-.012.111c-.002.052-.008.144.027.186.043.053.103.01.145-.02.057-.041.106-.09.15-.144.027-.032.041-.024.076-.006a.76.76 0 0 0 .102.044c.047.017.135.051.184.028.061-.028.035-.099.02-.148-.022-.069-.058-.126-.093-.188-.022-.038.008-.053.034-.08a.74.74 0 0 0 .069-.081c.031-.042.093-.118.071-.173-.025-.062-.122-.049-.175-.045a.7.7 0 0 0-.108.015c-.026.006-.082.035-.098-.002zm-210.829 39.37c-.077.002-.153.014-.227.036-.053.016-.139.035-.143.104-.004.06.071.11.113.142a.77.77 0 0 0 .086.059c.03.018.085.032.107.058s-.002.068-.008.096c-.009.041-.015.083-.018.125-.004.054-.016.149.027.191.052.05.12.002.168-.028a.87.87 0 0 0 .175-.145c.029-.03.045-.025.079-.003s.073.044.112.062c.054.025.149.072.209.054.075-.022.056-.105.043-.162a.89.89 0 0 0-.086-.223c-.022-.042-.007-.054.027-.083a.87.87 0 0 0 .092-.088c.039-.043.114-.12.111-.182-.003-.077-.09-.081-.148-.086-.082-.007-.159.006-.24.015-.05.006-.053-.033-.07-.072s-.034-.074-.055-.109c-.031-.051-.084-.151-.152-.152-.077-.001-.106.108-.126.166a.84.84 0 0 0-.032.122c-.006.03.001.102-.045.103z"/><path class="B" d="M269.303 113.982c.071-.033.138-.075.198-.127.043-.037.116-.09.092-.156-.021-.058-.111-.074-.164-.088-.035-.009-.07-.016-.105-.02s-.092.005-.124-.011-.026-.065-.031-.094c-.008-.042-.02-.084-.034-.125-.019-.052-.046-.147-.103-.168-.069-.026-.113.048-.146.095-.045.065-.077.134-.105.208-.015.04-.032.042-.073.035s-.087-.011-.13-.012c-.061-.001-.169-.007-.218.035-.061.051-.01.121.026.169.049.067.107.123.172.174.038.031.029.048.008.089a.89.89 0 0 0-.05.12c-.019.056-.058.159-.03.216.034.071.117.039.174.021.08-.027.147-.07.219-.112.044-.026.063.009.095.039a.85.85 0 0 0 .096.08c.049.035.14.107.204.08.072-.03.055-.144.05-.207a.78.78 0 0 0-.02-.127c-.007-.031-.042-.096 0-.115zM120.08 101.443a.74.74 0 0 0 .153.142c.042.029.103.079.154.044.045-.031.039-.112.039-.16 0-.032-.002-.063-.006-.095s-.025-.078-.018-.108.05-.036.073-.048c.035-.017.068-.036.099-.057.04-.027.116-.072.121-.126.007-.065-.066-.087-.114-.104a.86.86 0 0 0-.201-.044c-.038-.004-.043-.018-.046-.055a.81.81 0 0 0-.019-.114c-.013-.052-.032-.146-.078-.179-.058-.041-.106.019-.139.06a.81.81 0 0 0-.111.186c-.018.04-.035.035-.074.027a.79.79 0 0 0-.114-.016c-.052-.004-.149-.014-.192.023-.053.045-.008.109.021.154.041.063.093.11.145.162.032.032.006.056-.012.09l-.047.1c-.019.05-.061.144-.023.193.042.055.136.015.188-.003a.73.73 0 0 0 .104-.045c.025-.013.072-.058.099-.026zm283.703 149.71a.81.81 0 0 0 .082-.203c.013-.052.04-.131-.014-.168-.048-.033-.125.004-.172.022-.031.012-.061.026-.091.042s-.068.054-.1.059-.055-.035-.074-.054a.82.82 0 0 0-.094-.077c-.042-.03-.114-.087-.169-.072-.066.018-.061.098-.06.151a.87.87 0 0 0 .032.215c.01.039-.001.049-.036.066s-.072.038-.106.061c-.047.032-.132.086-.147.144-.019.072.058.097.111.115a.9.9 0 0 0 .225.04c.046.003.048.021.054.063a.83.83 0 0 0 .027.119c.016.053.042.152.094.18.064.035.111-.033.144-.078.046-.064.074-.133.106-.204.02-.044.053-.027.093-.021s.077.009.116.009c.057 0 .165.006.199-.049.038-.062-.036-.139-.073-.184a.77.77 0 0 0-.084-.086c-.022-.02-.084-.05-.062-.088zM91.073 82.629a.72.72 0 0 0-.087-.175c-.027-.039-.064-.104-.121-.09-.05.012-.071.085-.087.128a.64.64 0 0 0-.026.085c-.007.029-.004.077-.02.101s-.056.015-.08.018a.73.73 0 0 0-.106.017c-.045.011-.125.025-.148.07-.027.055.029.098.066.13.05.043.104.076.163.105.032.016.032.03.023.063a.88.88 0 0 0-.022.107c-.006.05-.02.139.009.184.037.055.099.019.142-.006a.76.76 0 0 0 .159-.127c.029-.029.042-.02.074.001a.74.74 0 0 0 .095.052c.045.02.126.062.176.044.062-.022.043-.093.032-.142-.015-.069-.045-.128-.074-.191-.018-.039.013-.051.041-.075a.71.71 0 0 0 .074-.073c.033-.038.101-.107.085-.162-.019-.062-.114-.058-.167-.06-.036-.001-.071.001-.107.005-.026.003-.083.027-.096-.01zm203.556 6.716a.67.67 0 0 0 .008-.182c-.004-.044-.005-.113-.058-.127-.046-.012-.096.037-.128.065a.61.61 0 0 0-.059.058c-.018.021-.038.061-.062.074s-.052-.013-.073-.022a.68.68 0 0 0-.094-.034c-.041-.011-.113-.036-.152-.009-.047.032-.02.093-.005.135.021.057.051.109.085.159.019.028.013.039-.01.062a.71.71 0 0 0-.066.077c-.028.038-.079.104-.075.154.005.062.072.06.119.059a.66.66 0 0 0 .187-.032c.037-.011.043.003.06.034a.69.69 0 0 0 .054.085c.027.037.075.107.124.115.06.01.077-.057.09-.101.019-.063.021-.124.026-.189.003-.04.034-.036.067-.043a.66.66 0 0 0 .093-.026c.044-.016.131-.041.142-.094.013-.059-.067-.099-.109-.124a.64.64 0 0 0-.089-.044c-.023-.009-.08-.016-.073-.051z"/><path class="B" d="M347.191 149.47a.78.78 0 0 0-.21-.025c-.051.001-.132-.003-.152.056-.018.053.035.115.064.154.019.026.039.05.062.074s.067.049.08.078-.019.06-.031.083a.79.79 0 0 0-.047.106c-.017.047-.052.128-.024.175.033.057.106.031.156.017a.84.84 0 0 0 .191-.085c.034-.02.046-.011.071.017s.054.057.084.083c.042.035.114.101.172.1.072-.001.076-.079.078-.132a.82.82 0 0 0-.021-.219c-.009-.043.007-.05.045-.066a.8.8 0 0 0 .103-.055c.045-.028.131-.078.143-.133.016-.069-.059-.094-.109-.113-.071-.027-.142-.035-.216-.046-.046-.007-.039-.042-.044-.081s-.012-.074-.022-.11c-.014-.053-.036-.154-.096-.172-.068-.02-.12.069-.152.115a.74.74 0 0 0-.058.1c-.013.025-.025.091-.066.08z"/><path class="C" d="M657.56 98.12a.72.72 0 0 0 .189.046c.047.005.12.018.146-.034.023-.046-.019-.109-.042-.148a.65.65 0 0 0-.048-.074c-.018-.024-.056-.052-.064-.08s.024-.052.038-.072c.021-.029.039-.06.055-.092.02-.041.061-.112.041-.158-.024-.056-.094-.04-.141-.033-.065.01-.125.031-.185.056-.033.014-.043.005-.063-.023a.76.76 0 0 0-.068-.085c-.034-.037-.093-.105-.146-.111-.066-.007-.078.064-.087.112-.012.067-.012.135-.006.202.004.041-.012.045-.049.056s-.068.023-.101.039c-.044.021-.128.057-.146.106-.023.061.044.093.087.116.062.032.126.048.193.066.041.012.031.043.031.079s.003.069.008.103c.007.05.016.145.069.168.06.026.118-.05.152-.088.024-.027.045-.055.064-.085.014-.022.033-.08.069-.066z"/><path class="B" d="M247.089 170.344a.86.86 0 0 0-.217.085c-.049.028-.13.065-.119.134.01.061.094.093.143.117a.78.78 0 0 0 .099.04c.034.011.091.013.118.034s.013.068.012.097a.87.87 0 0 0 .009.128c.008.054.016.152.068.184.062.038.12-.025.161-.064a.93.93 0 0 0 .142-.182c.023-.037.039-.035.078-.02a.91.91 0 0 0 .125.037c.059.013.163.039.219.008.07-.038.033-.116.007-.17a.91.91 0 0 0-.134-.202c-.031-.037-.019-.052.009-.088a.87.87 0 0 0 .072-.107c.029-.051.087-.144.07-.205-.02-.075-.107-.061-.166-.053-.083.011-.156.04-.235.068-.048.017-.06-.021-.085-.056s-.05-.066-.079-.096c-.041-.044-.116-.132-.184-.118-.076.016-.081.13-.089.192a.82.82 0 0 0-.005.128c.001.031.023.101-.022.112zM407.868 34.15c.02.062.047.121.082.175.026.039.061.104.118.091.05-.011.072-.083.089-.125a.65.65 0 0 0 .027-.084c.007-.029.006-.076.022-.1s.056-.014.08-.016a.63.63 0 0 0 .106-.015c.044-.01.125-.022.148-.066.028-.054-.027-.098-.062-.13a.77.77 0 0 0-.159-.108c-.031-.017-.031-.03-.021-.063a.89.89 0 0 0 .024-.105c.007-.05.023-.137-.005-.182-.035-.056-.098-.021-.141.003-.06.033-.112.075-.16.122-.029.028-.042.018-.073-.003s-.06-.038-.093-.054c-.044-.021-.124-.064-.173-.047-.061.021-.045.092-.035.14.014.068.042.127.069.191.017.039-.014.05-.042.073a.7.7 0 0 0-.075.07c-.034.037-.103.103-.087.159.017.062.112.06.164.063a.68.68 0 0 0 .106-.003c.026-.003.083-.025.094.012zM124.597 189.803a.9.9 0 0 0-.168-.186c-.047-.039-.115-.106-.18-.069-.057.032-.058.13-.063.188a.84.84 0 0 0-.003.114c.002.038.021.096.01.132s-.064.038-.093.049c-.043.016-.085.035-.125.058-.051.029-.146.074-.159.138-.015.077.07.111.125.137a.99.99 0 0 0 .237.074c.045.009.05.026.05.07a.95.95 0 0 0 .01.139c.01.064.023.179.075.223.065.056.129-.011.173-.057.061-.063.11-.134.153-.211.026-.046.046-.039.092-.024a.95.95 0 0 0 .135.032c.062.01.177.033.232-.007.068-.048.021-.13-.009-.186-.042-.079-.099-.142-.156-.21-.035-.042-.002-.068.024-.106a.91.91 0 0 0 .067-.115c.028-.058.088-.166.049-.229-.045-.071-.161-.033-.226-.017a.88.88 0 0 0-.13.043c-.031.013-.093.061-.121.02z"/><path class="C" d="M394.366 188.873a.8.8 0 0 0-.206-.068c-.052-.009-.132-.03-.165.025-.029.049.012.123.033.168a.73.73 0 0 0 .047.087c.018.028.057.063.065.094s-.031.056-.049.077a.81.81 0 0 0-.069.097c-.026.044-.078.118-.06.172.022.064.1.053.153.049a.86.86 0 0 0 .21-.046c.038-.013.048-.002.068.031l.067.1c.035.044.094.124.152.135.072.014.092-.064.106-.117a.84.84 0 0 0 .024-.224c0-.045.018-.049.059-.058a.82.82 0 0 0 .115-.034c.051-.019.147-.052.171-.105.03-.066-.04-.107-.087-.136-.066-.041-.136-.064-.208-.09-.045-.017-.03-.05-.027-.09s.003-.077.001-.115c-.004-.056-.005-.163-.062-.193-.064-.034-.135.045-.177.085a.76.76 0 0 0-.079.088c-.018.023-.043.086-.082.067zm20.823 19.022a.85.85 0 0 0-.033.228c0 .056-.007.143.057.168.057.022.126-.035.17-.065a.77.77 0 0 0 .082-.065c.026-.024.055-.071.087-.085s.064.022.089.037a.86.86 0 0 0 .114.054c.05.019.138.06.19.031.063-.035.037-.115.023-.169-.019-.075-.05-.143-.087-.211-.02-.037-.011-.05.02-.076s.064-.057.092-.089c.04-.044.113-.121.114-.184.001-.078-.084-.085-.142-.089a.91.91 0 0 0-.239.016c-.047.009-.054-.009-.071-.051a.87.87 0 0 0-.057-.114c-.029-.05-.081-.144-.141-.16-.074-.02-.104.062-.126.116-.031.077-.042.153-.057.234-.009.05-.047.041-.089.045s-.081.011-.121.02c-.058.014-.169.035-.19.1-.024.073.072.133.121.169a.79.79 0 0 0 .107.066c.027.014.098.03.085.074z"/><g class="B"><path d="M457.925 136.651c.045.045.095.083.151.114.04.022.1.062.143.026s.025-.104.02-.148c-.003-.029-.008-.057-.014-.085s-.029-.068-.026-.096.042-.037.062-.05c.03-.018.058-.038.085-.061.034-.028.098-.075.098-.125 0-.059-.068-.072-.112-.084a.75.75 0 0 0-.186-.021c-.035 0-.041-.012-.047-.045s-.016-.069-.027-.102c-.016-.046-.042-.129-.087-.155-.056-.032-.094.026-.121.067-.037.055-.063.115-.083.178-.012.037-.028.035-.065.031s-.07-.006-.105-.004c-.047.001-.136.001-.171.038-.044.046.003.099.033.137.043.053.094.091.146.134.032.026.011.05-.003.082s-.024.062-.033.095c-.013.047-.042.136-.004.177.043.046.124.001.17-.02.032-.014.061-.031.09-.05.021-.014.06-.059.087-.032z"/><circle transform="matrix(-.027497 -.002552 .002552 -.027497 131.41 218.02)" r="5"/><circle transform="matrix(.009388 .029731 -.029731 .009388 681.64 45.478)" r="5"/><circle transform="matrix(.00233 .024182 -.024182 .00233 229.92 97.293)" r="5"/></g><g class="C"><circle transform="matrix(.015998 -.024839 .024839 .015998 392 132.56)" r="5"/><circle transform="matrix(-.02552 -.006729 .006729 -.02552 143.33 1.5375)" r="5"/></g><circle class="B" transform="matrix(-.00125 -.033207 .033207 -.00125 351.04 38.97)" r="5"/><g class="B"><circle transform="matrix(.023832 -.007608 .007608 .023832 370.32 173.49)" r="5"/><circle transform="matrix(-.005733 -.027505 .027505 -.005733 157.43 133.58)" r="5"/></g><circle class="C" transform="matrix(.014386 .025716 -.025716 .014386 140.99 67.228)" r="5"/><circle class="B" transform="matrix(.029824 .01932 -.01932 .029824 266.46 150.58)" r="5"/><g class="C"><circle transform="matrix(.033957 .000387 -.000387 .033957 406.05 91.458)" r="5"/><circle transform="matrix(.033098 .003485 -.003485 .033098 515.65 193.5)" r="5"/><circle transform="matrix(-.013774 .028604 -.028604 -.013774 186.1 105.03)" r="5"/><circle transform="matrix(.034786 .001327 -.001327 .034786 91.835 1.3908)" r="5"/></g><circle class="B" transform="matrix(.006938 .031601 -.031601 .006938 587.71 40.191)" r="5"/><g class="C"><circle transform="matrix(-.011504 -.022745 .022745 -.011504 498.34 141.89)" r="5"/><circle transform="matrix(.024191 .000744 -.000744 .024191 702.79 251.58)" r="5"/></g><g class="B"><circle transform="matrix(.00292 .035305 -.035305 .00292 39.906 125.02)" r="5"/><circle transform="matrix(-.018252 .02737 -.02737 -.018252 221.12 83.463)" r="5"/><circle transform="matrix(.016705 .020639 -.020639 .016705 715.43 37.487)" r="5"/><circle transform="matrix(.016516 -.021264 .021264 .016516 268.88 136.73)" r="5"/></g><g class="C"><circle transform="matrix(.022597 -.016215 .016215 .022597 113.91 144.6)" r="5"/><circle transform="matrix(-.028525 .006596 -.006596 -.028525 702.37 87.847)" r="5"/><circle transform="matrix(-.029725 -.01089 .01089 -.029725 556.9 235.89)" r="5"/></g><g class="B"><circle transform="matrix(.013143 .029866 -.029866 .013143 51.793 147.67)" r="5"/><circle transform="matrix(.003404 -.027391 .027391 .003404 702.47 167.22)" r="5"/><circle transform="matrix(-.012594 .032235 -.032235 -.012594 346.67 227.78)" r="5"/></g><circle class="C" transform="matrix(.018388 .021191 -.02119 .018388 605.07 57.013)" r="5"/><g class="B"><circle transform="matrix(-.027221 -.005456 .005456 -.027221 258.3 204.72)" r="5"/><circle transform="matrix(-.021727 -.015494 .015494 -.021727 184.28 169.02)" r="5"/></g><circle class="C" transform="matrix(-.030358 -.017432 .017432 -.030358 82.215 163.04)" r="5"/><g class="B"><circle transform="matrix(.033601 -.00442 .00442 .033601 681.46 256.54)" r="5"/><circle transform="matrix(-.033507 .008078 -.008078 -.033507 190.93 157.36)" r="5"/><circle transform="matrix(-.020873 .018534 -.018534 -.020873 136.66 14.421)" r="5"/><circle transform="matrix(-.018158 .016258 -.016258 -.018158 377.81 224.15)" r="5"/></g><circle class="C" transform="matrix(-.006296 -.025251 .025251 -.006296 218.16 114.15)" r="5"/><g class="B"><circle transform="matrix(-.027524 .013046 -.013046 -.027524 95.408 110.24)" r="5"/><circle transform="matrix(.01434 -.029235 .029235 .01434 551.96 201.99)" r="5"/></g><g class="C"><circle transform="matrix(.026416 -.011878 .011878 .026416 484.8 149.99)" r="5"/><circle transform="matrix(.029471 -.006734 .006734 .029471 79.734 20.728)" r="5"/><circle transform="matrix(.012 -.032652 .032652 .012 157.93 42.614)" r="5"/></g><circle class="B" transform="matrix(-.025823 .011426 -.011426 -.025823 675.71 35.212)" r="5"/><g class="C"><circle transform="matrix(.023489 .010388 -.010388 .023489 254.63 40.369)" r="5"/><circle transform="matrix(-.026343 .007758 -.007758 -.026343 718.25 187)" r="5"/><circle transform="matrix(-.009054 -.023275 .023275 -.009054 171.32 15.758)" r="5"/><circle transform="matrix(-.001159 .024751 -.024751 -.001159 333.49 38.391)" r="5"/><circle transform="matrix(-.005285 -.030261 .030261 -.005285 107.58 124.99)" r="5"/></g><g class="B"><circle transform="matrix(-.022122 -.025126 .025126 -.022122 454.33 36.097)" r="5"/><circle transform="matrix(.026336 -.0113 .0113 .026336 375.98 18.659)" r="5"/><circle transform="matrix(-.018208 .020674 -.020674 -.018208 417.11 60.848)" r="5"/><circle transform="matrix(.01863 .023453 -.023453 .01863 142.47 26.401)" r="5"/></g><g class="C"><circle transform="matrix(-.014643 .020189 -.020189 -.014643 651.84 207.05)" r="5"/><circle transform="matrix(-.017515 -.020832 .020832 -.017515 290.52 225.14)" r="5"/><circle transform="matrix(-.010216 .02336 -.02336 -.010216 316.29 125.42)" r="5"/><circle transform="matrix(-.015042 .025243 -.025243 -.015042 498.68 154.85)" r="5"/><circle transform="matrix(-.006262 -.030525 .030525 -.006262 5.2639 8.2546)" r="5"/></g><circle class="B" transform="matrix(.001218 -.027458 .027458 .001218 146.91 138.1)" r="5"/><circle class="C" transform="matrix(.025971 .001333 -.001333 .025971 331.11 162.3)" r="5"/><circle class="B" transform="matrix(-.009987 .026937 -.026937 -.009987 161.45 81.228)" r="5"/><circle class="C" transform="matrix(-.01372 .02898 -.02898 -.01372 258.88 139.34)" r="5"/><circle class="B" transform="matrix(.025506 -.01717 .01717 .025506 415.81 230.57)" r="5"/><g class="C"><circle transform="matrix(.015235 .031364 -.031364 .015235 372.95 123.39)" r="5"/><circle transform="matrix(.027026 -.011766 .011766 .027026 465.95 202.36)" r="5"/></g><g class="B"><circle transform="matrix(-.010139 -.031692 .031692 -.010139 366.72 53.176)" r="5"/><circle transform="matrix(.024839 .01163 -.01163 .024839 152.07 213.44)" r="5"/></g><circle class="C" transform="matrix(.009937 -.024474 .024474 .009937 529.23 41.342)" r="5"/><g class="B"><circle transform="matrix(.02518 -.017271 .017271 .02518 315.13 153.79)" r="5"/><circle transform="matrix(.002696 .024431 -.024431 .002696 628.5 .4978)" r="5"/><circle transform="matrix(-.01578 .021703 -.021703 -.01578 318.06 31.781)" r="5"/><circle transform="matrix(-.026595 .018282 -.018282 -.026595 662.68 196.99)" r="5"/><circle transform="matrix(-.014085 .022556 -.022556 -.014085 292.08 156.24)" r="5"/></g><g class="C"><circle transform="matrix(.010257 -.031045 .031045 .010257 625.33 76.744)" r="5"/><circle transform="matrix(-.015689 .02899 -.02899 -.015689 20.205 236.52)" r="5"/></g><circle class="B" transform="matrix(-.019995 -.014398 .014398 -.019995 531.85 76.107)" r="5"/><g class="C"><circle transform="matrix(.033029 -.005387 .005387 .033029 3.6339 109.62)" r="5"/><circle transform="matrix(.031757 -.009128 .009128 .031757 4.4975 254.71)" r="5"/><circle transform="matrix(-.017466 -.020517 .020517 -.017466 121.41 41.022)" r="5"/></g><g class="B"><circle transform="matrix(-.009067 .024923 -.024923 -.009067 570.42 146.92)" r="5"/><circle transform="matrix(.02735 .013022 -.013022 .02735 279.8 191.7)" r="5"/><circle transform="matrix(-.00391 -.024997 .024997 -.00391 705.74 234.19)" r="5"/></g><g class="C"><circle transform="matrix(-.030395 .00405 -.00405 -.030395 248.03 118.4)" r="5"/><circle transform="matrix(-.023176 .014025 -.014025 -.023176 712.46 25.114)" r="5"/></g><circle class="B" transform="matrix(.025597 .016428 -.016428 .025597 402.32 10.376)" r="5"/><circle class="C" transform="matrix(.014984 -.022996 .022996 .014984 462.98 107.52)" r="5"/><circle class="B" transform="matrix(.012042 .024164 -.024164 .012042 484.06 61.951)" r="5"/><circle class="C" transform="matrix(.015989 .024445 -.024445 .015989 67.96 147.28)" r="5"/><circle class="B" transform="matrix(.028235 .010814 -.010814 .028235 663.78 258.13)" r="5"/><circle class="C" transform="matrix(.025942 -.022848 .022848 .025942 718.75 130.23)" r="5"/><circle class="B" transform="matrix(-.011484 -.023361 .023361 -.011484 527.76 203.56)" r="5"/><g class="C"><circle transform="matrix(.020815 -.022922 .022922 .020815 180.67 73.5)" r="5"/><circle transform="matrix(.032928 .012609 -.012609 .032928 221.21 252.85)" r="5"/></g><g class="B"><circle transform="matrix(.013116 .030561 -.030561 .013116 466.42 86.471)" r="5"/><circle transform="matrix(.004107 -.031235 .031235 .004107 642.86 54.977)" r="5"/><circle transform="matrix(.028542 -.014239 .014239 .028542 445.65 159.36)" r="5"/></g><g class="C"><circle transform="matrix(.028771 -.014662 .014662 .028771 199.17 172.16)" r="5"/><circle transform="matrix(.012287 -.032287 .032287 .012287 472.01 189.48)" r="5"/></g><circle class="B" transform="matrix(-.009795 .03448 -.03448 -.009795 640.32 31.845)" r="5"/><circle class="C" transform="matrix(.006631 -.025839 .025839 .006631 707.17 116.66)" r="5"/><circle class="B" transform="matrix(-.019213 .024103 -.024103 -.019213 146.9 106.11)" r="5"/><circle class="C" transform="matrix(.014158 .025063 -.025063 .014158 59.531 169.52)" r="5"/><g class="B"><circle transform="matrix(.023175 -.007594 .007594 .023175 274.75 78.48)" r="5"/><circle transform="matrix(-.009197 -.023465 .023465 -.009197 355.93 127.1)" r="5"/><circle transform="matrix(.007041 .026684 -.026684 .007041 309.01 3.414)" r="5"/></g></svg>
